<svg xmlns="http://www.w3.org/2000/svg" width="25.072" height="25.074" viewBox="0 0 25.072 25.074">
  <g id="chat22" transform="translate(-491 -848)">
    <g id="Groupe_8694" data-name="Groupe 8694" transform="translate(496 858.916)">
      <g id="Ellipse_474" data-name="Ellipse 474" transform="translate(0 0.084)" fill="#8595a8" stroke="#8595a8" stroke-width="1">
        <circle cx="1.5" cy="1.5" r="1.5" stroke="none"/>
        <circle cx="1.5" cy="1.5" r="1" fill="none"/>
      </g>
      <g id="Ellipse_475" data-name="Ellipse 475" transform="translate(6 0.084)" fill="#8595a8" stroke="#8595a8" stroke-width="1">
        <circle cx="1.5" cy="1.5" r="1.5" stroke="none"/>
        <circle cx="1.5" cy="1.5" r="1" fill="none"/>
      </g>
      <g id="Ellipse_476" data-name="Ellipse 476" transform="translate(12 0.084)" fill="#8595a8" stroke="#8595a8" stroke-width="1">
        <circle cx="1.5" cy="1.5" r="1.5" stroke="none"/>
        <circle cx="1.5" cy="1.5" r="1" fill="none"/>
      </g>
    </g>
    <g id="chat_1_" data-name="chat (1)" transform="translate(491 848)">
      <g id="Groupe_8693" data-name="Groupe 8693">
        <path id="Tracé_3130" data-name="Tracé 3130" d="M21.411,3.674A12.534,12.534,0,0,0,2.9,20.531,4.8,4.8,0,0,1,.886,22.757a1.176,1.176,0,0,0,.339,2.216,6.479,6.479,0,0,0,.991.074,7.484,7.484,0,0,0,4.41-1.463A12.533,12.533,0,0,0,21.411,3.674ZM20.4,20.388A11.1,11.1,0,0,1,6.924,22.116a.713.713,0,0,0-.869.111A.236.236,0,0,0,6,22.269a6.12,6.12,0,0,1-3.78,1.346H2.211a7.018,7.018,0,0,0,2.152-2.857A.732.732,0,0,0,4.4,20.3a.744.744,0,0,0-.175-.4,11.1,11.1,0,1,1,16.173.493Z" transform="translate(-0.019)" fill="#8595a8"/>
      </g>
    </g>
  </g>
</svg>
