<svg xmlns="http://www.w3.org/2000/svg" width="24.359" height="15.96" viewBox="0 0 24.359 15.96">
  <g id="english" transform="translate(0 0)">
    <path id="Tracé_2493" data-name="Tracé 2493" d="M22.535,88.276H1.824A1.824,1.824,0,0,0,0,90.1v12.311a1.824,1.824,0,0,0,1.824,1.824H22.535a1.824,1.824,0,0,0,1.824-1.824V90.1A1.824,1.824,0,0,0,22.535,88.276Z" transform="translate(0 -88.276)" fill="#41479b"/>
    <path id="Tracé_2494" data-name="Tracé 2494" d="M24.334,89.8a1.825,1.825,0,0,0-1.8-1.523H22.06l-7.781,5.1v-5.1h-4.2v5.1L2.3,88.275H1.824A1.825,1.825,0,0,0,.025,89.8l6.65,4.357H0v4.2H6.675l-6.65,4.357a1.825,1.825,0,0,0,1.8,1.523H2.3l7.781-5.1v5.1h4.2v-5.1l7.781,5.1h.475a1.825,1.825,0,0,0,1.8-1.523l-6.65-4.357h6.675v-4.2H17.684Z" transform="translate(0 -88.275)" fill="#f5f5f5"/>
    <g id="Groupe_6700" data-name="Groupe 6700" transform="translate(0 0)">
      <path id="Tracé_2495" data-name="Tracé 2495" d="M13.44,88.276H10.92V95H0v2.52H10.92v6.72h2.52v-6.72h10.92V95H13.44Z" transform="translate(0 -88.276)" fill="#ff4b55"/>
      <path id="Tracé_2496" data-name="Tracé 2496" d="M9.965,305.9l8.877-5.762H17.3L9.224,305.38A1.827,1.827,0,0,0,9.965,305.9Z" transform="translate(-8.785 -290.058)" fill="#ff4b55"/>
      <path id="Tracé_2497" data-name="Tracé 2497" d="M315.5,300.138H313.96l8.6,5.581a1.832,1.832,0,0,0,.585-.622Z" transform="translate(-299.023 -290.058)" fill="#ff4b55"/>
      <path id="Tracé_2498" data-name="Tracé 2498" d="M4.049,96.491l7.5,4.871H13.1l-8.5-5.52A1.832,1.832,0,0,0,4.049,96.491Z" transform="translate(-3.856 -95.482)" fill="#ff4b55"/>
      <path id="Tracé_2499" data-name="Tracé 2499" d="M301.681,96.4l8.09-5.251a1.827,1.827,0,0,0-.747-.517L300.138,96.4Z" transform="translate(-285.858 -90.515)" fill="#ff4b55"/>
    </g>
  </g>
</svg>
