<svg xmlns="http://www.w3.org/2000/svg" width="26" height="26" viewBox="0 0 26 26">
  <g id="happy" transform="translate(-0.072)">
    <g id="Groupe_26" data-name="Groupe 26" transform="translate(0.072)">
      <g id="group-2svg" transform="translate(0)">
        <path id="path-1_10_" d="M347.56,178.112a1.5,1.5,0,1,1-1.5-1.5A1.5,1.5,0,0,1,347.56,178.112Z" transform="translate(-328.775 -168.521)" fill="#464758"/>
        <path id="path-2_10_" d="M159.641,178.112a1.5,1.5,0,1,1-1.5-1.5A1.5,1.5,0,0,1,159.641,178.112Z" transform="translate(-149.469 -168.521)" fill="#464758"/>
        <path id="path-3_10_" d="M165.92,340.321h-2.08a4.755,4.755,0,0,1-4.778-4.72.617.617,0,0,1,1.235,0,3.478,3.478,0,0,0,3.544,3.486h2.08a3.45,3.45,0,0,0,3.544-3.428.617.617,0,0,1,1.235,0A4.671,4.671,0,0,1,165.92,340.321Z" transform="translate(-151.774 -319.635)" fill="#464758"/>
        <path id="path-4_10_" d="M13.072,26a13,13,0,1,1,13-13A13.015,13.015,0,0,1,13.072,26Zm0-24.765A11.765,11.765,0,1,0,24.837,13,11.779,11.779,0,0,0,13.072,1.235Z" transform="translate(-0.072)" fill="#464758"/>
      </g>
    </g>
  </g>
</svg>
