<svg xmlns="http://www.w3.org/2000/svg" width="12.722" height="12.722" viewBox="0 0 12.722 12.722">
  <g id="information" transform="translate(0 0)">
    <g id="Groupe_6759" data-name="Groupe 6759">
      <g id="Groupe_6758" data-name="Groupe 6758">
        <path id="Tracé_3020" data-name="Tracé 3020" d="M192.058,106.681a1.268,1.268,0,0,0,.07.128c.023.035.058.07.081.1a1.045,1.045,0,0,0,.116.1.392.392,0,0,0,.14.07.577.577,0,0,0,.151.047.715.715,0,0,0,.151.012.663.663,0,0,0,.151-.012.417.417,0,0,0,.128-.047h.012a.869.869,0,0,0,.14-.081.753.753,0,0,0,.1-.093l.012-.012a.64.64,0,0,0,.081-.1.364.364,0,0,0,.058-.116c0-.012,0-.012.012-.023a.75.75,0,0,0,.047-.151.989.989,0,0,0,0-.3,1.077,1.077,0,0,0-.047-.151.66.66,0,0,0-.14-.209l-.023-.023a1.018,1.018,0,0,0-.116-.093c-.047-.023-.081-.047-.128-.07a.657.657,0,0,0-.14-.047.715.715,0,0,0-.151-.012.611.611,0,0,0-.291.058h-.012a1.275,1.275,0,0,0-.128.07,1.017,1.017,0,0,0-.116.093.752.752,0,0,0-.093.1,1.269,1.269,0,0,0-.07.128.655.655,0,0,0-.047.14.716.716,0,0,0-.012.151.664.664,0,0,0,.012.151A1.052,1.052,0,0,0,192.058,106.681Z" transform="translate(-186.418 -102.53)" fill="#ec1b1b"/>
        <path id="Tracé_3021" data-name="Tracé 3021" d="M179.693,183.951h-.267V181.1a.3.3,0,0,0-.3-.3H177.9a.3.3,0,0,0-.3.3v.628a.3.3,0,0,0,.3.3h.244v1.93H177.9a.3.3,0,0,0-.3.3v.628a.3.3,0,0,0,.3.3h1.791a.3.3,0,0,0,.3-.3v-.628A.31.31,0,0,0,179.693,183.951Z" transform="translate(-172.437 -175.544)" fill="#ec1b1b"/>
        <path id="Tracé_3022" data-name="Tracé 3022" d="M6.361,0a6.361,6.361,0,1,0,6.361,6.361A6.362,6.362,0,0,0,6.361,0Zm0,11.885a5.524,5.524,0,1,1,5.524-5.524A5.529,5.529,0,0,1,6.361,11.885Z" fill="#ec1b1b"/>
      </g>
    </g>
  </g>
</svg>
