<svg xmlns="http://www.w3.org/2000/svg" xmlns:xlink="http://www.w3.org/1999/xlink" width="236.436" height="163.218" viewBox="0 0 236.436 163.218">
  <defs>
    <linearGradient id="linear-gradient" y1="0.5" x2="1" y2="0.5" gradientUnits="objectBoundingBox">
      <stop offset="0" stop-color="gray" stop-opacity="0.251"/>
      <stop offset="0.54" stop-color="gray" stop-opacity="0.122"/>
      <stop offset="1" stop-color="gray" stop-opacity="0.102"/>
    </linearGradient>
  </defs>
  <g id="Group_8693" data-name="Group 8693" transform="translate(0 0.006)">
    <path id="Path_3130" data-name="Path 3130" d="M150.644,69.678c-15.155.02-29.743-4.276-43.7-9.048s-27.8-10.117-42.672-12.382c-9.565-1.456-20.443-1.322-27.92,3.964-7.2,5.085-9.282,13.5-10.287,21.276-.756,5.849-1.1,11.988,1.727,17.339,1.967,3.714,5.332,6.776,7.7,10.316,8.28,12.315,3.3,28.046-4.746,40.646-3.773,5.912-8.193,11.579-11.046,17.829s-4.022,13.339-1.113,19.508c2.883,6.115,9.4,10.553,16.384,13.584,14.192,6.167,30.716,7.489,46.8,8,35.594,1.129,71.257-1.174,106.824-3.477,13.162-.852,26.383-1.709,39.274-4.177,7.157-1.369,14.527-3.4,19.6-7.852,6.441-5.653,7.759-14.881,3.072-21.515-7.86-11.127-28.587-13.225-34.223-25.264-3.108-6.628-.428-14.229,3.52-20.617,8.467-13.708,23.04-25.986,23.285-41.317.168-10.529-7.41-20.8-18.73-25.375-11.865-4.793-28.042-3.56-36.354,5.373C179.5,65.688,164.026,69.664,150.644,69.678Z" transform="translate(-16.91 -47.46)" fill="#6c63ff" opacity="0.1"/>
    <path id="Path_3131" data-name="Path 3131" d="M989.931,689.3a5.511,5.511,0,0,0-4.961-.474s.76,1.464,3.887,1.326Z" transform="translate(-788.701 -558.464)" fill="#6c63ff"/>
    <path id="Path_3132" data-name="Path 3132" d="M1004.505,693.25a5.509,5.509,0,0,1-1.144,4.852s-1.143-1.19,0-4.106Z" transform="translate(-802.959 -562.324)" fill="#6c63ff"/>
    <path id="Path_3133" data-name="Path 3133" d="M1003.75,672.478s-.184-2.455-5.73-1.64a2.645,2.645,0,0,0,1.92,2.334A3.2,3.2,0,0,0,1003.75,672.478Z" transform="translate(-799.105 -544.324)" fill="#6c63ff"/>
    <path id="Path_3134" data-name="Path 3134" d="M1021.607,679.5s2.344.752.253,5.953a2.652,2.652,0,0,1-1.825-2.415A3.179,3.179,0,0,1,1021.607,679.5Z" transform="translate(-816.614 -551.362)" fill="#6c63ff"/>
    <path id="Path_3135" data-name="Path 3135" d="M1022.375,647.94s.318-4.041-5.348-3.627c0,0-.405,3.649,4.349,4.6Z" transform="translate(-814.251 -523.286)" fill="#6c63ff"/>
    <path id="Path_3136" data-name="Path 3136" d="M1036.581,626.177s-.776-4.58-6.441-3.216c0,0-.02,3.96,5.517,4.306Z" transform="translate(-824.713 -506.084)" fill="#6c63ff"/>
    <path id="Path_3137" data-name="Path 3137" d="M1048.224,603.287s-1.3-4.46-6.914-3.126c0,0,1.336,4.012,6.541,3.949Z" transform="translate(-833.619 -487.91)" fill="#6c63ff"/>
    <path id="Path_3138" data-name="Path 3138" d="M1061.921,580.067s-1.271-4.629-6.691-3.244c0,0,1.808,4.4,6.332,4.026Z" transform="translate(-844.716 -469.297)" fill="#6c63ff"/>
    <path id="Path_3139" data-name="Path 3139" d="M1072.78,554.216s-.977-5.661-6.03-4.408c0,0,1.468,5.15,5.659,5.233Z" transform="translate(-853.901 -447.82)" fill="#6c63ff"/>
    <path id="Path_3140" data-name="Path 3140" d="M1079.525,529.067s-1.174-5.705-6.285-4.055c0,0,2,5.393,5.922,4.835Z" transform="translate(-859.075 -427.957)" fill="#6c63ff"/>
    <path id="Path_3141" data-name="Path 3141" d="M1086.135,500.081s-1.863-5.707-5.815-5.553c0,0,1.9,6.028,5.484,6.691Z" transform="translate(-864.719 -403.89)" fill="#6c63ff"/>
    <path id="Path_3142" data-name="Path 3142" d="M1091.463,473.206s-2.027-6.869-5.243-6.34c0,0,1.4,5.251,5.13,7.41Z" transform="translate(-869.423 -381.815)" fill="#6c63ff"/>
    <path id="Path_3143" data-name="Path 3143" d="M1093.889,446.593s-1.9-5.723-5.069-5.953c0,0,1.294,5.632,5.006,7.441Z" transform="translate(-871.496 -360.93)" fill="#6c63ff"/>
    <path id="Path_3144" data-name="Path 3144" d="M1098.17,420.6s-2.37-5.73-4.46-5.859c0,0,1.03,5.642,4.258,6.8Z" transform="translate(-875.395 -340.281)" fill="#6c63ff"/>
    <path id="Path_3145" data-name="Path 3145" d="M1103.032,392.619s-1.458-6.222-3.552-6.739c0,0,.286,5.091,3.341,7.206Z" transform="translate(-879.995 -317.272)" fill="#6c63ff"/>
    <path id="Path_3146" data-name="Path 3146" d="M1108.2,364.517s-1.533-4.961-3.23-5.717c0,0,.334,5.849,2.839,6.93Z" transform="translate(-884.372 -295.682)" fill="#6c63ff"/>
    <path id="Path_3147" data-name="Path 3147" d="M1119.113,331.606l.308-8.746s-3.173,6.593-.537,10.281Z" transform="translate(-894.63 -267.029)" fill="#6c63ff"/>
    <path id="Path_3148" data-name="Path 3148" d="M1131.356,296.573s2.285-6.386,2.838-6.743c0,0-4.481,4.144-4.043,9.474Z" transform="translate(-904.424 -240.696)" fill="#6c63ff"/>
    <path id="Path_3149" data-name="Path 3149" d="M1040.588,662.12s4.018-.525,3.9,5.154c0,0-3.631.592-4.817-4.106Z" transform="translate(-832.311 -537.495)" fill="#6c63ff"/>
    <path id="Path_3150" data-name="Path 3150" d="M1059.207,639.06s4.643-.014,4.258,5.8c0,0-3.9.7-5.184-4.7Z" transform="translate(-847.148 -519.121)" fill="#6c63ff"/>
    <path id="Path_3151" data-name="Path 3151" d="M1074.163,616.929s4.215-1.977,6.911,3.126c0,0-3.893,1.646-7.285-2.3Z" transform="translate(-859.513 -501.176)" fill="#6c63ff"/>
    <path id="Path_3152" data-name="Path 3152" d="M1087.287,592.319s4.316-2.1,6.851,2.881c0,0-4.5,1.549-7.208-2.092Z" transform="translate(-869.989 -481.505)" fill="#6c63ff"/>
    <path id="Path_3153" data-name="Path 3153" d="M1095.47,565.987s4.154-3.968,7.469.045c0,0-4.244,3.266-7.66.839Z" transform="translate(-876.646 -459.468)" fill="#6c63ff"/>
    <path id="Path_3154" data-name="Path 3154" d="M1102.49,538.646s4.179-4.055,7.467.187c0,0-4.689,3.331-7.617.665Z" transform="translate(-882.275 -437.672)" fill="#6c63ff"/>
    <path id="Path_3155" data-name="Path 3155" d="M1106.93,505s3.22-5.069,7.011-3.937c0,0-3.341,5.367-6.974,5.127Z" transform="translate(-885.934 -408.971)" fill="#6c63ff"/>
    <path id="Path_3156" data-name="Path 3156" d="M1111.283,476.851s3.244-6.382,6.313-5.271c0,0-2.34,4.906-6.4,6.348Z" transform="translate(-889.339 -385.493)" fill="#6c63ff"/>
    <path id="Path_3157" data-name="Path 3157" d="M1111.444,450.815s3.335-5.024,6.459-4.41c0,0-2.727,5.095-6.784,5.863Z" transform="translate(-889.275 -365.484)" fill="#6c63ff"/>
    <path id="Path_3158" data-name="Path 3158" d="M1114,420.767s2.585-5.638,4.686-5.677c0,0-1.241,5.6-4.511,6.634Z" transform="translate(-891.571 -340.56)" fill="#6c63ff"/>
    <path id="Path_3159" data-name="Path 3159" d="M1116.5,396.021s2.873-5.709,5.032-5.721c0,0-1.47,4.882-4.937,6.222Z" transform="translate(-893.564 -320.796)" fill="#6c63ff"/>
    <path id="Path_3160" data-name="Path 3160" d="M1118.63,368.079s2.149-4.724,3.929-5.259c0,0-1.075,5.758-3.692,6.512Z" transform="translate(-895.262 -298.887)" fill="#6c63ff"/>
    <path id="Path_3161" data-name="Path 3161" d="M1122.631,336.377l4.8-7.317s-1.231,7.218-5.5,8.718Z" transform="translate(-897.893 -271.972)" fill="#6c63ff"/>
    <path id="Path_3162" data-name="Path 3162" d="M1132.505,308.4s5.582-3.852,5.784-4.475c0,0-2.838,5.4-8.11,6.348Z" transform="translate(-904.471 -251.937)" fill="#6c63ff"/>
    <path id="Path_3163" data-name="Path 3163" d="M1142.694,293.245s6.409-6.161,8.045-6.155a10.462,10.462,0,0,0-8.2,5.827Z" transform="translate(-914.325 -238.511)" fill="#6c63ff"/>
    <path id="Path_3164" data-name="Path 3164" d="M1118.94,330.829l.233.03c1.2-9.426,2.96-15,4.943-15.686l-.077-.223C1121.937,315.68,1120.169,321.172,1118.94,330.829Z" transform="translate(-895.509 -260.723)" fill="#444053"/>
    <path id="Path_3165" data-name="Path 3165" d="M1110.2,413.061l.353.028c.075-.88.132-1.78.17-2.678.337-7.8.858-14.967,1.543-20.337l-.2-.253c-.687,5.383-1.356,12.763-1.693,20.577C1110.332,411.289,1110.275,412.185,1110.2,413.061Z" transform="translate(-888.541 -320.413)" fill="#444053"/>
    <path id="Path_3166" data-name="Path 3166" d="M976.25,544.491a45.92,45.92,0,0,0,12.716-9.413,51.139,51.139,0,0,0,9.3-13.178,59.7,59.7,0,0,0,5.405-20.769l-.367.172c-1.369,16.26-8.771,27.371-14.656,33.422a45.444,45.444,0,0,1-12.584,9.326Z" transform="translate(-781.598 -409.156)" fill="#444053"/>
    <path id="Path_3167" data-name="Path 3167" d="M283.419,132.69H88.605a1.735,1.735,0,0,0-1.735,1.735v5.056H285.154v-5.056A1.735,1.735,0,0,0,283.419,132.69Z" transform="translate(-72.686 -115.415)" fill="#3f3d56"/>
    <path id="Path_3168" data-name="Path 3168" d="M86.87,166.19V279.978a3.5,3.5,0,0,0,3.5,3.5H281.655a3.5,3.5,0,0,0,3.5-3.5V166.19Z" transform="translate(-72.686 -142.123)" fill="#fff"/>
    <circle id="Ellipse_474" data-name="Ellipse 474" cx="0.811" cy="0.811" r="0.811" transform="translate(16.514 19.809)" fill="#fa5959" opacity="0.8"/>
    <circle id="Ellipse_475" data-name="Ellipse 475" cx="0.811" cy="0.811" r="0.811" transform="translate(18.744 19.809)" fill="#fed253" opacity="0.8"/>
    <circle id="Ellipse_476" data-name="Ellipse 476" cx="0.811" cy="0.811" r="0.811" transform="translate(20.974 19.809)" fill="#8ccf4d" opacity="0.8"/>
    <rect id="Rectangle_3726" data-name="Rectangle 3726" width="159.357" height="70.073" transform="translate(32.616 43.04)" opacity="0.05"/>
    <rect id="Rectangle_3727" data-name="Rectangle 3727" width="156.924" height="68.528" transform="translate(33.832 43.571)" fill="#3f3d56"/>
    <path id="Path_3171" data-name="Path 3171" d="M310.784,327.38a15,15,0,1,0,15,15A15,15,0,0,0,310.784,327.38Zm2.69,15.365v7.1h-5.3v-7.1a4.4,4.4,0,1,1,5.3,0Z" transform="translate(-237.638 -272.769)" fill="#6c63ff"/>
    <rect id="Rectangle_3728" data-name="Rectangle 3728" width="64.878" height="6.893" transform="translate(104.995 74.186)" fill="#fff"/>
    <rect id="Rectangle_3730" data-name="Rectangle 3730" width="64.878" height="6.893" transform="translate(104.995 64.036)" fill="#fff"/>
    <rect id="Rectangle_3729" data-name="Rectangle 3729" width="13.989" height="6.893" transform="translate(155.884 86.756)" fill="#6c63ff"/>
    <path id="Path_3172" data-name="Path 3172" d="M554.72,424.3h-1.174l1.044-1.042a.1.1,0,0,0,0-.144.1.1,0,0,0-.144,0l-1.044,1.044v-1.176a.1.1,0,0,0-.1-.1.1.1,0,0,0-.1.1v1.176l-1.042-1.05a.1.1,0,0,0-.144,0,.1.1,0,0,0,0,.144l1.044,1.042h-1.176a.1.1,0,0,0-.1.1.1.1,0,0,0,.1.1h1.176l-1.044,1.044a.1.1,0,0,0,0,.144.105.105,0,0,0,.144,0l1.042-1.044v1.174a.1.1,0,1,0,.2,0V424.64l1.044,1.044a.105.105,0,0,0,.144,0,.1.1,0,0,0,0-.144l-1.044-1.044h1.174a.1.1,0,1,0,0-.2Z" transform="translate(-443.338 -346.77)" fill="#6c63ff"/>
    <path id="Path_3173" data-name="Path 3173" d="M575.72,424.3h-1.174l1.044-1.042a.1.1,0,0,0,0-.144.1.1,0,0,0-.144,0l-1.044,1.044v-1.176a.1.1,0,0,0-.1-.1.1.1,0,0,0-.1.1v1.176l-1.042-1.05a.1.1,0,0,0-.144,0,.1.1,0,0,0,0,.144l1.044,1.042h-1.176a.1.1,0,0,0-.1.1.1.1,0,0,0,.1.1h1.176l-1.044,1.044a.1.1,0,0,0,0,.144.105.105,0,0,0,.144,0l1.042-1.044v1.174a.1.1,0,0,0,.2,0V424.64l1.044,1.044a.105.105,0,0,0,.144,0,.1.1,0,0,0,0-.144l-1.044-1.044h1.174a.1.1,0,1,0,0-.2Z" transform="translate(-460.08 -346.77)" fill="#6c63ff"/>
    <path id="Path_3174" data-name="Path 3174" d="M596.72,424.3h-1.174l1.044-1.042a.1.1,0,0,0,0-.144.1.1,0,0,0-.144,0l-1.044,1.044v-1.176a.1.1,0,0,0-.1-.1.1.1,0,0,0-.1.1v1.176l-1.042-1.05a.1.1,0,0,0-.144,0,.1.1,0,0,0,0,.144l1.044,1.042h-1.176a.1.1,0,0,0-.1.1.1.1,0,0,0,.1.1h1.176l-1.044,1.044a.1.1,0,0,0,0,.144.105.105,0,0,0,.144,0l1.042-1.044v1.174a.1.1,0,1,0,.2,0V424.64l1.044,1.044a.105.105,0,0,0,.144,0,.1.1,0,0,0,0-.144l-1.044-1.044h1.174a.1.1,0,1,0,0-.2Z" transform="translate(-476.823 -346.77)" fill="#6c63ff"/>
    <path id="Path_3175" data-name="Path 3175" d="M617.72,424.3h-1.174l1.044-1.042a.1.1,0,0,0,0-.144.1.1,0,0,0-.144,0l-1.044,1.044v-1.176a.1.1,0,0,0-.1-.1.1.1,0,0,0-.1.1v1.176l-1.042-1.05a.1.1,0,0,0-.144,0,.1.1,0,0,0,0,.144l1.044,1.042h-1.176a.1.1,0,0,0-.1.1.1.1,0,0,0,.1.1h1.176l-1.044,1.044a.1.1,0,0,0,0,.144.105.105,0,0,0,.144,0l1.042-1.044v1.174a.1.1,0,1,0,.2,0V424.64l1.044,1.044a.105.105,0,0,0,.144,0,.1.1,0,0,0,0-.144l-1.044-1.044h1.174a.1.1,0,1,0,0-.2Z" transform="translate(-493.565 -346.77)" fill="#6c63ff"/>
    <path id="Path_3176" data-name="Path 3176" d="M638.72,424.3h-1.174l1.044-1.042a.1.1,0,0,0,0-.144.1.1,0,0,0-.144,0l-1.044,1.044v-1.176a.1.1,0,0,0-.1-.1.1.1,0,0,0-.1.1v1.176l-1.042-1.05a.1.1,0,0,0-.144,0,.1.1,0,0,0,0,.144l1.044,1.042h-1.176a.1.1,0,0,0-.1.1.1.1,0,0,0,.1.1h1.176l-1.044,1.044a.1.1,0,0,0,0,.144.105.105,0,0,0,.144,0l1.042-1.044v1.174a.1.1,0,1,0,.2,0V424.64l1.044,1.044a.105.105,0,0,0,.144,0,.1.1,0,0,0,0-.144l-1.044-1.044h1.174a.1.1,0,1,0,0-.2Z" transform="translate(-510.307 -346.77)" fill="#6c63ff"/>
    <path id="Path_3177" data-name="Path 3177" d="M659.72,424.3h-1.174l1.044-1.042a.1.1,0,0,0,0-.144.1.1,0,0,0-.144,0l-1.044,1.044v-1.176a.1.1,0,0,0-.1-.1.1.1,0,0,0-.1.1v1.176l-1.042-1.05a.1.1,0,0,0-.144,0,.1.1,0,0,0,0,.144l1.044,1.042h-1.176a.1.1,0,0,0-.1.1.1.1,0,0,0,.1.1h1.176l-1.044,1.044a.1.1,0,0,0,0,.144.105.105,0,0,0,.144,0l1.042-1.044v1.174a.1.1,0,0,0,.2,0V424.64l1.044,1.044a.105.105,0,0,0,.144,0,.1.1,0,0,0,0-.144l-1.044-1.044h1.174a.1.1,0,1,0,0-.2Z" transform="translate(-527.05 -346.77)" fill="#6c63ff"/>
    <path id="Path_3178" data-name="Path 3178" d="M680.72,424.3h-1.174l1.044-1.042a.1.1,0,0,0,0-.144.1.1,0,0,0-.144,0l-1.044,1.044v-1.176a.1.1,0,0,0-.1-.1.1.1,0,0,0-.1.1v1.176l-1.042-1.05a.1.1,0,0,0-.144,0,.1.1,0,0,0,0,.144l1.044,1.042h-1.176a.1.1,0,0,0-.1.1.1.1,0,0,0,.1.1h1.176l-1.044,1.044a.1.1,0,0,0,0,.144.105.105,0,0,0,.144,0l1.042-1.044v1.174a.1.1,0,0,0,.2,0V424.64l1.044,1.044a.105.105,0,0,0,.144,0,.1.1,0,0,0,0-.144l-1.044-1.044h1.174a.1.1,0,1,0,0-.2Z" transform="translate(-543.792 -346.77)" fill="#6c63ff"/>
    <path id="Path_3179" data-name="Path 3179" d="M701.72,424.3h-1.174l1.044-1.042a.1.1,0,0,0,0-.144.1.1,0,0,0-.144,0l-1.044,1.044v-1.176a.1.1,0,0,0-.1-.1.1.1,0,0,0-.1.1v1.176l-1.042-1.05a.1.1,0,0,0-.144,0,.1.1,0,0,0,0,.144l1.044,1.042h-1.176a.1.1,0,0,0-.1.1.1.1,0,0,0,.1.1h1.176l-1.044,1.044a.1.1,0,0,0,0,.144.105.105,0,0,0,.144,0l1.042-1.044v1.174a.1.1,0,1,0,.2,0V424.64l1.044,1.044a.105.105,0,0,0,.144,0,.1.1,0,0,0,0-.144l-1.044-1.044h1.174a.1.1,0,1,0,0-.2Z" transform="translate(-560.535 -346.77)" fill="#6c63ff"/>
    <path id="Path_3180" data-name="Path 3180" d="M722.72,424.3h-1.174l1.044-1.042a.1.1,0,0,0,0-.144.1.1,0,0,0-.144,0l-1.044,1.044v-1.176a.1.1,0,0,0-.1-.1.1.1,0,0,0-.1.1v1.176l-1.042-1.05a.1.1,0,0,0-.144,0,.1.1,0,0,0,0,.144l1.044,1.042h-1.176a.1.1,0,0,0-.1.1.1.1,0,0,0,.1.1h1.176l-1.044,1.044a.1.1,0,0,0,0,.144.105.105,0,0,0,.144,0l1.042-1.044v1.174a.1.1,0,1,0,.2,0V424.64l1.044,1.044a.105.105,0,0,0,.144,0,.1.1,0,0,0,0-.144l-1.044-1.044h1.174a.1.1,0,1,0,0-.2Z" transform="translate(-577.277 -346.77)" fill="#6c63ff"/>
    <path id="Path_3181" data-name="Path 3181" d="M743.72,424.3h-1.174l1.044-1.042a.1.1,0,0,0,0-.144.1.1,0,0,0-.144,0l-1.044,1.044v-1.176a.1.1,0,0,0-.1-.1.1.1,0,0,0-.1.1v1.176l-1.042-1.05a.1.1,0,0,0-.144,0,.1.1,0,0,0,0,.144l1.044,1.042h-1.176a.1.1,0,0,0-.1.1.1.1,0,0,0,.1.1h1.176l-1.044,1.044a.1.1,0,0,0,0,.144.105.105,0,0,0,.144,0l1.042-1.044v1.174a.1.1,0,1,0,.2,0V424.64l1.044,1.044a.105.105,0,0,0,.144,0,.1.1,0,0,0,0-.144l-1.044-1.044h1.174a.1.1,0,1,0,0-.2Z" transform="translate(-594.019 -346.77)" fill="#6c63ff"/>
    <path id="Path_3182" data-name="Path 3182" d="M764.72,424.3h-1.174l1.044-1.042a.1.1,0,0,0,0-.144.1.1,0,0,0-.144,0l-1.044,1.044v-1.176a.1.1,0,0,0-.1-.1.1.1,0,0,0-.1.1v1.176l-1.042-1.05a.1.1,0,0,0-.144,0,.1.1,0,0,0,0,.144l1.044,1.042h-1.176a.1.1,0,0,0-.1.1.1.1,0,0,0,.1.1h1.176l-1.044,1.044a.1.1,0,0,0,0,.144.105.105,0,0,0,.144,0l1.042-1.044v1.174a.1.1,0,1,0,.2,0V424.64l1.044,1.044a.105.105,0,0,0,.144,0,.1.1,0,0,0,0-.144l-1.044-1.044h1.174a.1.1,0,1,0,0-.2Z" transform="translate(-610.762 -346.77)" fill="#6c63ff"/>
    <path id="Path_3183" data-name="Path 3183" d="M816.226,484.42a3.622,3.622,0,0,0-.091-.728,2.363,2.363,0,0,0-1.271-1.721,10.673,10.673,0,0,1-2.015-.852c-.122-2.173.377-4.4-.166-6.5a16.551,16.551,0,0,1-.627-2.3c-.111-.981.156-2.027-.235-2.932a2.893,2.893,0,0,0-1.713-1.48,9.131,9.131,0,0,0-2.285-.406c-.973-.079-4.124-.452-5.223.418h0a1.145,1.145,0,0,0-.2.2h0a.807.807,0,0,0-.065.105l-.01.016a.823.823,0,0,0-.055.132h0a1.037,1.037,0,0,0-.034.152v.365c.014.182.041.365.041.545a1.177,1.177,0,0,1-.024.268,1.876,1.876,0,0,1-.337.657h0l-.037.053c-.022.032-.045.063-.065.1s-.036.057-.053.085-.032.047-.047.073a.981.981,0,0,0-.053.1c0,.02-.022.039-.03.059a1,1,0,0,0-.061.17,1.131,1.131,0,0,0-.012.539,2.006,2.006,0,0,0,.278.639c.051.083.105.164.162.245l.142.193a4.372,4.372,0,0,0-.043.568,4.194,4.194,0,0,0,1.6,3.3,12.418,12.418,0,0,1-.026,2.573c-.018.178-.041.359-.065.537s-.043.3-.067.444a2.057,2.057,0,0,1-.886-.067,4.216,4.216,0,0,0-.406-.156c-.59-.148-1.192.44-1.776.262a.238.238,0,0,1-.026.081.8.8,0,0,0-.406-.12,1.479,1.479,0,0,1-.88-.5l-.773-.728a.857.857,0,0,1-.134-.15,1.051,1.051,0,0,1-.093-.249,2.873,2.873,0,0,0-.748-1.073.507.507,0,0,0-.221-.16.345.345,0,0,0-.1,0,.885.885,0,0,0-.067-.081,1.91,1.91,0,0,0-.168-.17c-.369-.341-.405-.633-.726-1.014a9.735,9.735,0,0,1-.758-1.146c-.026-.213-.063-.432-.107-.653a8.41,8.41,0,0,0-.444-1.48l-.406-.9-.047.047c-.294-.438-.608-.677-.89-.62-.472.1-.706,1.014-.631,2.212l.162,1.216a.377.377,0,0,0,.022.091,2.255,2.255,0,0,0-.045.438c0,.17.158.3.241.448a1.267,1.267,0,0,1,.2.691c-.01.087-.036.17-.04.255a.983.983,0,0,0,.19.527l1.014,1.7.2.357.012.016a.867.867,0,0,0,.272.312,3.716,3.716,0,0,0,.335,1.231c.035.077.073.15.114.223a7.176,7.176,0,0,0,.957,1.243l.483.541c.476.531.953,1.064,1.47,1.555a1.968,1.968,0,0,0,.657.46.744.744,0,0,0,.738-.107q0,.377,0,.754a.424.424,0,0,1,.32.667,16.72,16.72,0,0,1-1.5,3.175,6.763,6.763,0,0,1,1.257.959,5.66,5.66,0,0,1,.655.886c.018.15.032.3.04.446.15,2.417-.785,4.815-1.622,7.118a5.547,5.547,0,0,0-.485,2.015,3.958,3.958,0,0,0-.454.326,3.007,3.007,0,0,1,.083,1.285,2.276,2.276,0,0,1-.168.811,5.708,5.708,0,0,1-.292.521,7.735,7.735,0,0,0-.746,3.086c-.063.639.184,1.419-.106,1.991a8.145,8.145,0,0,0-1.014,3.118,3.124,3.124,0,0,1-.093.728c-.063.2-.174.375-.231.574a2.455,2.455,0,0,0-.041.811,7.761,7.761,0,0,1-.426,2.861,3.89,3.89,0,0,0-.335,2.242,3.161,3.161,0,0,0-.858,1.883,2.969,2.969,0,0,1-.065.537,2.609,2.609,0,0,1-.243.517,4.525,4.525,0,0,0-.551,2.433,6.768,6.768,0,0,0-1.093,2.855c-.18,1.012-.26,2.042-.491,3.041a28.344,28.344,0,0,0-.975,4.012,2.826,2.826,0,0,0-1.066,2,8.909,8.909,0,0,1-.468,2.285c-.166.369-.405.7-.564,1.077a4.938,4.938,0,0,0-.243.927,3.613,3.613,0,0,0-.063,1.521,2.3,2.3,0,0,1-.594.452c.032-.126.059-.251.081-.379-.523.474-1.472.308-1.89.878a.856.856,0,0,0,.2,1.174,1.624,1.624,0,0,0,.42.18,6.705,6.705,0,0,0,3.1.478.925.925,0,0,0,.351-.112,1.128,1.128,0,0,0,.326-.377c.156-.247.312-.495.466-.742a9.627,9.627,0,0,0,1.137.266c.039.324.067.649.081.973.2.041.474.053.57-.136a.493.493,0,0,0,.034-.225c0-.144.02-.335.032-.529h.041a3.852,3.852,0,0,0,1.794-.363c-.217-1.8.5-3.552,1.119-5.251.655-1.788,1.217-3.609,1.782-5.43.405-1.281.854-2.522,1.251-3.805q.75-2.433,1.506-4.866c.219-.714.44-1.419.691-2.129a33.17,33.17,0,0,1,1.879-4.183c.2-.383.406-.762.572-1.16.2-.484.347-.991.509-1.492a23.117,23.117,0,0,1,1.273-3c.014-.026.024-.051.039-.075.164.671.328,1.352.438,2.027a7.707,7.707,0,0,1,.034,2.506,8.267,8.267,0,0,0-.26,1.7,10.491,10.491,0,0,0,.663,2.277,8.662,8.662,0,0,1,.227,1.744c.057.912.552,1.936.2,2.782-1.085,2.678-.56,5.7-1.178,8.515-.318,1.444-1.294,2.8-1.216,4.276q.081,1.571.276,3.134a2.981,2.981,0,0,0,.254.951,3.488,3.488,0,0,0,.278.454c-.089.034-.164.126-.229.318a1.251,1.251,0,0,0,.45,1.419,1.971,1.971,0,0,0,.586.2,3.09,3.09,0,0,0,.848.118,1.981,1.981,0,0,0,.266-.032,9.641,9.641,0,0,0,.959.345,2.085,2.085,0,0,0,.026.249.31.31,0,0,0,.105.229.316.316,0,0,0,.162.029h1.1v-.276a.906.906,0,0,0,.7-.227,1.084,1.084,0,0,0,.2-.422q.45-1.527.894-3.055a9.767,9.767,0,0,0,.436-3.487c-.391-3.737.468-7.485.188-11.232a26.91,26.91,0,0,1,.345-6.739c.091-.5.2-1.014.243-1.515.089-.945-.02-1.9.047-2.838.022-.328.067-.655.107-.981a47.1,47.1,0,0,0,.436-6.113,19.252,19.252,0,0,0-.126-2.027,1.158,1.158,0,0,0,.553-.324,1.378,1.378,0,0,0,.132-.866,6.276,6.276,0,0,1,.545-2.072,24.628,24.628,0,0,0,.766-2.851,9.951,9.951,0,0,0,.341-2.382q0-.122-.012-.243a.627.627,0,0,0,.187-.2,1.176,1.176,0,0,0,.1-.375c.073-.517.148-1.036.221-1.555q.081-.558.16-1.113l.645-4.5c.055-.391.111-.781.166-1.17l.168-1.164c.018-.138.039-.276.053-.405C816.751,486.464,816.279,485.361,816.226,484.42Zm-5.379,16.844a3.705,3.705,0,0,1-.406-1.762h-.022a.905.905,0,0,0-.026-.572c-.063-.148-.172-.274-.239-.422a1.548,1.548,0,0,1-.109-.568,15.476,15.476,0,0,1,.29-3.678c.026-.142.055-.286.081-.428a1.058,1.058,0,0,0,.231-.18,1.643,1.643,0,0,0,.261-.405c.229-.46.438-.929.631-1.405.063-.154.154-.333.31-.371a8.9,8.9,0,0,1-.393,3.467,2.2,2.2,0,0,0-.2.547c-.045.3.081.608.036.908-.022.156-.089.3-.116.454a.444.444,0,0,0,.118.43.354.354,0,0,0,.087.045c-.012.081-.022.164-.03.243-.016.166-.024.322-.034.42a13.053,13.053,0,0,0-.055,1.492c0,.537.02,1.075.012,1.622a1.1,1.1,0,0,1-.077.46.8.8,0,0,1-.154.2A5.273,5.273,0,0,0,810.848,501.264Z" transform="translate(-629.628 -382.228)" fill="url(#linear-gradient)"/>
    <ellipse id="Ellipse_477" data-name="Ellipse 477" cx="1.143" cy="3.238" rx="1.143" ry="3.238" transform="matrix(0.98, -0.201, 0.201, 0.98, 162.796, 89.398)" fill="#fbbebe"/>
    <path id="Path_3184" data-name="Path 3184" d="M878.152,836.5a1.228,1.228,0,0,0,.45,1.405,2.008,2.008,0,0,0,.582.2,3.072,3.072,0,0,0,.845.116c.351-.016.687-.154,1.038-.2a.163.163,0,0,1,.12.016.173.173,0,0,1,.045.142,5.366,5.366,0,0,0,.044.6.306.306,0,0,0,.106.229.316.316,0,0,0,.162.028h1.1a10.721,10.721,0,0,0-.314-2.867.64.64,0,0,0-.081-.2.671.671,0,0,0-.351-.2,1.96,1.96,0,0,0-.849-.148,2.488,2.488,0,0,0-.953.466,1.452,1.452,0,0,1-1.081.262C878.647,836.241,878.34,835.935,878.152,836.5Z" transform="translate(-703.489 -675.82)" fill="#3f3d56"/>
    <path id="Path_3185" data-name="Path 3185" d="M793.468,833.971a3.041,3.041,0,0,1-1.109.754l-.187.089a.13.13,0,0,0-.063.051.109.109,0,0,0,.02.091,1.312,1.312,0,0,0,1.488.541.789.789,0,0,0,.326-.17,1.071,1.071,0,0,0,.251-.653,1.337,1.337,0,0,0-.03-.748C793.883,833.292,793.78,833.58,793.468,833.971Z" transform="translate(-634.94 -674.183)" fill="#fbbebe"/>
    <path id="Path_3186" data-name="Path 3186" d="M792.8,836.929a.492.492,0,0,1-.034.225c-.1.187-.361.176-.568.136a13.644,13.644,0,0,0-.249-2.048c-.393-.018-.677.355-.888.689l-.543.862a1.123,1.123,0,0,1-.324.377.961.961,0,0,1-.351.112,6.648,6.648,0,0,1-3.088-.479,1.636,1.636,0,0,1-.42-.178.858.858,0,0,1-.2-1.172c.42-.568,1.362-.405,1.885-.876a4.724,4.724,0,0,1-.268.967c.7-.105,1.17-.746,1.733-1.174a1.068,1.068,0,0,1,.495-.235,1.088,1.088,0,0,1,.405.043,4.756,4.756,0,0,1,1.784.878,1.923,1.923,0,0,1,.639.665A4.921,4.921,0,0,1,792.8,836.929Z" transform="translate(-630.058 -674.643)" fill="#3f3d56"/>
    <circle id="Ellipse_478" data-name="Ellipse 478" cx="4.189" cy="4.189" r="4.189" transform="translate(172.499 87.015)" fill="#fbbebe"/>
    <path id="Path_3187" data-name="Path 3187" d="M912.011,614.119a9.928,9.928,0,0,1-.339,2.37,24.471,24.471,0,0,1-.766,2.838,6.248,6.248,0,0,0-.541,2.068,1.375,1.375,0,0,1-.134.864,1.261,1.261,0,0,1-.592.339.74.74,0,0,0-.5.444,3.134,3.134,0,0,1-.422-.929q-.545-1.671-1.014-3.36a.436.436,0,0,1,.028-.405.5.5,0,0,1,.176-.1,1.825,1.825,0,0,0,.562-.361.821.821,0,0,0,.186-.241,1.093,1.093,0,0,0,.079-.458c0-.537,0-1.073-.014-1.61a13.467,13.467,0,0,1,.057-1.486c0-.1.018-.253.034-.42.03-.318.091-.687.264-.811.258-.172,1.028.059,1.32.1.5.069,1.014.15,1.5.245A4.019,4.019,0,0,1,912.011,614.119Z" transform="translate(-727.071 -498.184)" fill="#3f3d56"/>
    <path id="Path_3188" data-name="Path 3188" d="M827.632,503.959c-.162.324-.552.48-.852.685l-1.028.706a.686.686,0,0,1-.509.174.669.669,0,0,1-.379-.355.072.072,0,0,0,0-.016l-.213-.357-1.014-1.7a.967.967,0,0,1-.188-.523c0-.087.03-.168.038-.255a1.227,1.227,0,0,0-.2-.689c-.081-.152-.243-.278-.239-.448a1.623,1.623,0,0,1,.113-.655,1.327,1.327,0,0,1,.444-.474c.1-.069.193-.134.294-.2a.579.579,0,0,1,.176-.081c.168-.034.334.105.5.111.732.491,1.014,1.419,1.59,2.088.324.381.357.673.724,1.014.059.053.116.109.17.168a1.184,1.184,0,0,1,.182.264C827.312,503.588,827.715,503.793,827.632,503.959Z" transform="translate(-659.606 -408.066)" fill="#3f3d56"/>
    <path id="Path_3189" data-name="Path 3189" d="M873.705,505.878a3.774,3.774,0,0,1,.45,2.042,1.275,1.275,0,0,1-.176.537,1.736,1.736,0,0,1-1.437.556.847.847,0,0,0-.624.2.568.568,0,0,0,.039.693,1.565,1.565,0,0,0,.62.405,5.492,5.492,0,0,0,2.67.592c.426-.04.839-.164,1.263-.227a13.267,13.267,0,0,1,1.391-.077c.552-.02,1.1-.075,1.65-.13l1.456-.144a.324.324,0,0,0,.217-.079c.107-.126-.03-.31-.164-.405-.773-.572-1.756-.965-2.2-1.825a10.742,10.742,0,0,1-.416-1.326,11.142,11.142,0,0,1-.482-1.279,8.482,8.482,0,0,1-.067-1.18,1.583,1.583,0,0,0-.405-1.079,1.691,1.691,0,0,0-1.1-.355,3.571,3.571,0,0,0-2.688.872c-.184.185-.343.406-.533.572s-.45.215-.324.434.373.355.507.547A4.677,4.677,0,0,1,873.705,505.878Z" transform="translate(-698.489 -410.484)" fill="#fbbebe"/>
    <path id="Path_3190" data-name="Path 3190" d="M864.7,526.6a23.035,23.035,0,0,1-1.241,4.568,17.214,17.214,0,0,0-.73,2.048c-.156.628-.126,1.3-.27,1.932-.178.785-.357,1.571-.5,2.362a15.485,15.485,0,0,0-.288,3.67,1.535,1.535,0,0,0,.109.566c.067.146.174.272.237.422a1.014,1.014,0,0,1-.057.811,2.351,2.351,0,0,1-.418.633c-1.89.564-3.911.379-5.88.5a23.648,23.648,0,0,1-5.438.172,4.31,4.31,0,0,1,.426-2.451c.841-2.3,1.772-4.689,1.622-7.1a7.363,7.363,0,0,0-.1-.837,11.1,11.1,0,0,1,.539-5.123,8.794,8.794,0,0,0,.231-3.2,5.838,5.838,0,0,1-.014-1.048,1.843,1.843,0,0,1,.381-.979c0-.014.018-.028.028-.043a.28.28,0,0,1,.152,0h0a.129.129,0,0,0,.1,0l.022-.014a.051.051,0,0,1,.059,0c.047.028.073.126.174.144a4.037,4.037,0,0,0,.452.042,2.431,2.431,0,0,1,.539.077h.024a1.584,1.584,0,0,0,.787-.067,2.09,2.09,0,0,0,.483-.187c.045-.049.324-.093.381-.128.185-.111.144-.635.182-.849a2.339,2.339,0,0,1,.152-.629,1.07,1.07,0,0,1,.868-.5,4.62,4.62,0,0,1,1.04.093c.756.107,1.531.089,2.273.264a1.693,1.693,0,0,0,1.123.049c.093.022.107.1.107.2a1.3,1.3,0,0,1-.057.278c-.13.56.31,1.075.716,1.48a2.3,2.3,0,0,0,.6.477c.2.093.405.132.608.233a1.107,1.107,0,0,1,.406.371,1.549,1.549,0,0,1,.231.59A3.529,3.529,0,0,1,864.7,526.6Z" transform="translate(-681.228 -425.303)" fill="#3f3d56"/>
    <path id="Path_3191" data-name="Path 3191" d="M872.2,534.82a23.035,23.035,0,0,1-1.241,4.568,17.2,17.2,0,0,0-.73,2.048c-.156.629-.126,1.3-.27,1.932-.178.785-.357,1.571-.5,2.362-.043.024-.087.047-.132.067a3.109,3.109,0,0,1-.795.255,4.864,4.864,0,0,1-1.484-.049l-2.893-.387a5.829,5.829,0,0,1-3.244-1.127,6.922,6.922,0,0,1-1.131-1.545,7.375,7.375,0,0,0-.1-.837,11.1,11.1,0,0,1,.539-5.123,8.794,8.794,0,0,0,.231-3.2,5.843,5.843,0,0,1-.014-1.048,1.843,1.843,0,0,1,.381-.979,1.435,1.435,0,0,1,.18-.041h0a.9.9,0,0,1,.124-.016h.059a.882.882,0,0,1,.2.024,3.681,3.681,0,0,1,.406.156h.024a1.554,1.554,0,0,0,.539.077c.268,0,.543-.043.811-.061a1.5,1.5,0,0,1,.961.172,5.754,5.754,0,0,1,.535.489,2.3,2.3,0,0,0,.675.367,7.175,7.175,0,0,0,5.4-.114,1.056,1.056,0,0,1,.541-.138,1.013,1.013,0,0,1,.389.166c.122.071.241.14.365.2a1.549,1.549,0,0,1,.231.59A3.527,3.527,0,0,1,872.2,534.82Z" transform="translate(-688.731 -433.528)" opacity="0.1"/>
    <path id="Path_3192" data-name="Path 3192" d="M867.085,531.948a10.82,10.82,0,0,1-2.311-1.014,1.036,1.036,0,0,0-.389-.166,1.088,1.088,0,0,0-.543.138,7.171,7.171,0,0,1-5.4.114,2.346,2.346,0,0,1-.675-.367,6.089,6.089,0,0,0-.535-.489c-.667-.432-1.59.075-2.336-.2a4.12,4.12,0,0,0-.405-.156c-.59-.148-1.19.44-1.77.261a9.854,9.854,0,0,0-.476,1.808,19.723,19.723,0,0,0-.132,2.133c0,.428-.02.856,0,1.283a.421.421,0,0,1,.32.665,16.623,16.623,0,0,1-1.5,3.165,6.877,6.877,0,0,1,1.253.957c.71.75,1.058,1.8,1.825,2.5a5.86,5.86,0,0,0,3.244,1.125l2.893.387a4.944,4.944,0,0,0,1.486.051,3.127,3.127,0,0,0,.793-.258,1.421,1.421,0,0,0,.442-.292,1.621,1.621,0,0,0,.261-.406c.229-.458.438-.927.631-1.4.067-.168.168-.365.351-.379,1.075-.969,2.088-1.963,3.163-2.932a7.01,7.01,0,0,0,1.154-1.216c.533-.789.049-1.906,0-2.859a3.617,3.617,0,0,0-.091-.724A2.323,2.323,0,0,0,867.085,531.948Z" transform="translate(-681.845 -431.998)" fill="#6c63ff"/>
    <path id="Path_3193" data-name="Path 3193" d="M834.781,517.133c-.162.324-.551.48-.852.685l-1.028.706a.686.686,0,0,1-.509.174.669.669,0,0,1-.379-.355V518.2a1.361,1.361,0,0,1,.065-.484,1.51,1.51,0,0,1,.454-.584,3.72,3.72,0,0,1,1.332-.811.456.456,0,0,1,.243-.024.318.318,0,0,1,.089.038,1.178,1.178,0,0,1,.182.264C834.461,516.762,834.865,516.967,834.781,517.133Z" transform="translate(-666.755 -421.24)" opacity="0.1"/>
    <path id="Path_3194" data-name="Path 3194" d="M838.19,519.786a1.477,1.477,0,0,1-.878-.5l-.768-.714a.721.721,0,0,1-.134-.15,1.054,1.054,0,0,1-.093-.249,2.86,2.86,0,0,0-.746-1.07.486.486,0,0,0-.221-.158.444.444,0,0,0-.245.024,3.708,3.708,0,0,0-1.332.811,1.514,1.514,0,0,0-.454.584,1.348,1.348,0,0,0-.065.485,3.721,3.721,0,0,0,.353,1.549c.034.075.073.15.114.223a7.01,7.01,0,0,0,.953,1.239l.482.539c.474.531.949,1.062,1.464,1.551a1.935,1.935,0,0,0,.657.458.734.734,0,0,0,.754-.122,1.091,1.091,0,0,0,.215-.385,7.584,7.584,0,0,0,.626-2.528,9.539,9.539,0,0,0-.045-1.048C838.8,519.952,838.535,519.808,838.19,519.786Z" transform="translate(-667.743 -421.755)" fill="#6c63ff"/>
    <path id="Path_3195" data-name="Path 3195" d="M822.507,634.261a46.863,46.863,0,0,1-.434,6.1c-.041.326-.085.653-.107.979-.067.947.043,1.9-.047,2.838-.047.509-.152,1.014-.241,1.51a26.857,26.857,0,0,0-.345,6.721c.28,3.737-.578,7.475-.189,11.2a9.057,9.057,0,0,1-.12,2.167,9.2,9.2,0,0,1-.314,1.31q-.444,1.523-.892,3.041a1.054,1.054,0,0,1-.2.422.961.961,0,0,1-.76.225,8.771,8.771,0,0,1-3.333-1.034,1.161,1.161,0,0,1-.334-.2c-.221-.229-.2-.59-.3-.892a8.483,8.483,0,0,0-.511-.9,2.926,2.926,0,0,1-.221-.922q-.2-1.557-.276-3.126c-.077-1.472.9-2.826,1.216-4.258.608-2.814.093-5.831,1.174-8.5.341-.843-.154-1.865-.2-2.773a8.789,8.789,0,0,0-.227-1.74,10.782,10.782,0,0,1-.661-2.271,8.341,8.341,0,0,1,.258-1.693,7.61,7.61,0,0,0-.034-2.5c-.107-.681-.272-1.362-.436-2.027l-.037.075a22.913,22.913,0,0,0-1.271,2.99c-.162.5-.3,1-.507,1.486-.166.405-.371.776-.572,1.158a33.235,33.235,0,0,0-1.875,4.166c-.251.7-.472,1.419-.691,2.123l-1.5,4.866c-.406,1.279-.85,2.516-1.247,3.793-.562,1.825-1.123,3.633-1.776,5.417-.608,1.693-1.332,3.447-1.115,5.235a3.852,3.852,0,0,1-1.79.363,10.483,10.483,0,0,1-3.041-.738,2.364,2.364,0,0,1-1.05-.625,2.484,2.484,0,0,1-.2-2.054,4.964,4.964,0,0,1,.243-.925c.154-.373.406-.7.564-1.072a9,9,0,0,0,.464-2.277,2.81,2.81,0,0,1,1.062-2,28.853,28.853,0,0,1,.973-4c.231-1,.308-2.027.491-3.041a6.681,6.681,0,0,1,1.089-2.849,4.515,4.515,0,0,1,.552-2.433,2.659,2.659,0,0,0,.241-.517,2.979,2.979,0,0,0,.065-.535,3.165,3.165,0,0,1,.856-1.879,3.813,3.813,0,0,1,.333-2.23,7.75,7.75,0,0,0,.426-2.853,2.5,2.5,0,0,1,.039-.811c.057-.2.168-.375.233-.57a3.247,3.247,0,0,0,.091-.728,8.42,8.42,0,0,1,1.014-3.11c.292-.572.045-1.348.105-1.985a7.673,7.673,0,0,1,.746-3.076c.1-.174.2-.341.29-.521a2.253,2.253,0,0,0,.168-.811,2.985,2.985,0,0,0-.083-1.281,6.57,6.57,0,0,1,3.976-1.216,24.791,24.791,0,0,0,4.219-.233c.405-.091.811-.217,1.239-.278a8.014,8.014,0,0,1,2.916.3,3.473,3.473,0,0,0,.405,1.758,18.869,18.869,0,0,1,1.5,7.242Z" transform="translate(-639.773 -507.847)" fill="#33313f"/>
    <path id="Path_3196" data-name="Path 3196" d="M883.642,673.29l-2.33,5.239c-.107-.681-.272-1.362-.436-2.027l-.037.075v-.109l1.269-2.792Z" transform="translate(-705.683 -546.411)" opacity="0.1"/>
    <path id="Path_3197" data-name="Path 3197" d="M916.462,614.119a.875.875,0,0,1-.462.172,2.247,2.247,0,0,1-.758-.1l-1.825-.456a.892.892,0,0,1-.166-.059c.03-.318.091-.687.264-.811.258-.172,1.028.059,1.32.1.5.069,1.014.15,1.5.245A4.019,4.019,0,0,1,916.462,614.119Z" transform="translate(-731.522 -498.184)" opacity="0.1"/>
    <path id="Path_3198" data-name="Path 3198" d="M917.26,557.265c.039.168.093.335.126.5a3.853,3.853,0,0,1-.043,1.255l-.166,1.16-.166,1.166-.643,4.487-.158,1.111-.223,1.551a1.115,1.115,0,0,1-.1.373.777.777,0,0,1-.635.375,2.3,2.3,0,0,1-.758-.1l-1.825-.458a.572.572,0,0,1-.223-.091.44.44,0,0,1-.118-.428c.026-.154.093-.3.116-.452.045-.3-.081-.608-.036-.906a2.254,2.254,0,0,1,.2-.545c.608-1.344.255-2.913.462-4.373a6.63,6.63,0,0,1,1.407-3.13,8.992,8.992,0,0,1,1.553-1.525,3.126,3.126,0,0,1,.874-.608C917.277,556.549,917.2,557.009,917.26,557.265Z" transform="translate(-730.778 -453.393)" fill="#6c63ff"/>
    <path id="Path_3199" data-name="Path 3199" d="M861.152,469.623c-.134.426.075.894-.02,1.328-.1.479-.553.811-.681,1.292-.2.732.418,1.4.872,2.007,1.683,2.259,1.462,5.385.886,8.14a42.031,42.031,0,0,1-1.916,6.488,4.97,4.97,0,0,1-1.032,1.811,5.337,5.337,0,0,1,2.859-.278c1.184.328,2.206,1.478,3.406,1.216.722-.16,1.229-.8,1.877-1.156,1.217-.655,2.682-.243,4.039-.032a1.585,1.585,0,0,0,.882-.045,1.464,1.464,0,0,0,.535-.493,5,5,0,0,0,1.042-2.7,3.459,3.459,0,0,0-1-2.662,5.692,5.692,0,0,1-.854-.811,2.519,2.519,0,0,1-.335-1.229c-.16-2.23.383-4.507-.176-6.664a16.445,16.445,0,0,1-.622-2.291c-.111-.979.154-2.027-.235-2.924a2.867,2.867,0,0,0-1.709-1.476,9.362,9.362,0,0,0-2.279-.406C865.584,468.65,861.616,468.173,861.152,469.623Z" transform="translate(-688.478 -383.216)" fill="#33313f"/>
    <g id="Group_8693-2" data-name="Group 8693" transform="translate(170.782 85.943)" opacity="0.1">
      <path id="Path_3200" data-name="Path 3200" d="M866.306,494.242A41.952,41.952,0,0,1,864.4,500.7c.14-.278.258-.57.369-.86a41.8,41.8,0,0,0,1.916-6.488c.578-2.757.8-5.88-.884-8.14a3.181,3.181,0,0,1-.908-1.756,2.16,2.16,0,0,0-.345.637c-.2.732.418,1.4.872,2.007C867.1,488.36,866.882,491.487,866.306,494.242Z" transform="translate(-863.358 -481.011)"/>
      <path id="Path_3201" data-name="Path 3201" d="M868.4,472.968a1.971,1.971,0,0,0,.357-.683,3.472,3.472,0,0,0-.024-.9.975.975,0,0,0-.337.464A4.009,4.009,0,0,0,868.4,472.968Z" transform="translate(-866.505 -471.38)"/>
      <path id="Path_3202" data-name="Path 3202" d="M873.239,566.492a1.46,1.46,0,0,1-.535.491,1.549,1.549,0,0,1-.882.045c-1.356-.2-2.838-.62-4.039.034-.651.353-1.156.993-1.879,1.156-1.2.268-2.22-.882-3.4-1.216a4.752,4.752,0,0,0-2.569.2,3.542,3.542,0,0,1-.671.969,5.337,5.337,0,0,1,2.859-.278c1.184.328,2.206,1.478,3.406,1.216.722-.16,1.229-.8,1.877-1.156,1.216-.655,2.682-.243,4.039-.032a1.586,1.586,0,0,0,.882-.045,1.467,1.467,0,0,0,.535-.493,5.45,5.45,0,0,0,.839-1.606A5.9,5.9,0,0,1,873.239,566.492Z" transform="translate(-859.26 -546.641)"/>
    </g>
  </g>
</svg>
