<svg xmlns="http://www.w3.org/2000/svg" width="24.359" height="15.959" viewBox="0 0 24.359 15.959">
  <g id="iran" transform="translate(0 -88.276)">
    <path id="Tracé_2866" data-name="Tracé 2866" d="M24.359,93.6H0V88.7a.42.42,0,0,1,.42-.42H23.939a.42.42,0,0,1,.42.42v4.9Z" transform="translate(0 0)" fill="#73af00"/>
    <path id="Tracé_2867" data-name="Tracé 2867" d="M23.939,317.229H.42a.42.42,0,0,1-.42-.42v-4.9H24.359v4.9A.42.42,0,0,1,23.939,317.229Z" transform="translate(0 -212.993)" fill="#ff4b55"/>
    <g id="Groupe_6702" data-name="Groupe 6702" transform="translate(0 92.621)">
      <rect id="Rectangle_342" data-name="Rectangle 342" width="24.359" height="5.319" transform="translate(0 0.975)" fill="#f5f5f5"/>
      <path id="Tracé_2868" data-name="Tracé 2868" d="M.066,180.294h0a.066.066,0,0,0,.066-.066v-.143a.066.066,0,0,1,.066-.066H.479a.066.066,0,0,1,.066.066v.143a.066.066,0,0,0,.066.066h.547a.066.066,0,0,0,.066-.066v-.283a.066.066,0,0,0-.066-.066H.883a.066.066,0,0,0-.066.066v.007a.066.066,0,0,0,.066.066h.14a.066.066,0,0,1,.066.066v.007a.066.066,0,0,1-.066.066H.747a.066.066,0,0,1-.066-.066v-.147a.066.066,0,0,0-.066-.066H.066a.066.066,0,0,0-.066.066v.283A.066.066,0,0,0,.066,180.294Zm.273,0h0a.066.066,0,0,0,.066-.066v0a.066.066,0,0,0-.066-.066h0a.066.066,0,0,0-.066.066v0A.066.066,0,0,0,.34,180.294Zm-.273-.554H1.7a.066.066,0,0,0,.066-.066v-.007A.066.066,0,0,0,1.7,179.6H.066a.066.066,0,0,0-.066.066v.007A.066.066,0,0,0,.066,179.74Zm1.638.554H1.428a.066.066,0,0,1-.066-.066v-.283a.066.066,0,0,1,.066-.066H1.84a.066.066,0,0,0,.066-.066v-.147a.066.066,0,0,1,.066-.066h0a.066.066,0,0,1,.066.066v.425a.066.066,0,0,0,.066.066h0a.066.066,0,0,0,.066-.066v-.425a.066.066,0,0,1,.066-.066h0a.066.066,0,0,1,.066.066v.425a.066.066,0,0,0,.066.066h.005a.066.066,0,0,0,.066-.066v-.425a.066.066,0,0,1,.066-.066h0a.066.066,0,0,1,.066.066v.561a.066.066,0,0,1-.066.066H1.972a.066.066,0,0,1-.066-.066v-.143a.066.066,0,0,0-.066-.066H1.564a.066.066,0,0,0-.066.066v.007a.066.066,0,0,0,.066.066H1.7a.066.066,0,0,1,.066.066v0A.066.066,0,0,1,1.7,180.294Z" transform="translate(0 -179.601)" fill="#f5f5f5"/>
      <path id="Tracé_2869" data-name="Tracé 2869" d="M57.3,180.294H57.3a.066.066,0,0,0,.066-.066v-.143a.066.066,0,0,1,.066-.066h.274a.066.066,0,0,1,.066.066v.143a.066.066,0,0,0,.066.066h.547a.066.066,0,0,0,.066-.066v-.283a.066.066,0,0,0-.066-.066H58.11a.066.066,0,0,0-.066.066v.007a.066.066,0,0,0,.066.066h.14a.066.066,0,0,1,.066.066v.007a.066.066,0,0,1-.066.066h-.275a.066.066,0,0,1-.066-.066v-.147a.066.066,0,0,0-.066-.066H57.3a.066.066,0,0,0-.066.066v.283A.066.066,0,0,0,57.3,180.294Zm.272,0h0a.066.066,0,0,0,.066-.066v0a.066.066,0,0,0-.066-.066h0a.066.066,0,0,0-.066.066v0A.066.066,0,0,0,57.567,180.294Zm-.272-.554h1.636a.066.066,0,0,0,.066-.066v-.007a.066.066,0,0,0-.066-.066H57.3a.066.066,0,0,0-.066.066v.007A.066.066,0,0,0,57.3,179.74Zm1.636.554h-.277a.066.066,0,0,1-.066-.066v-.283a.066.066,0,0,1,.066-.066h.411a.066.066,0,0,0,.066-.066v-.147a.066.066,0,0,1,.066-.066H59.2a.066.066,0,0,1,.066.066v.425a.066.066,0,0,0,.066.066h.005a.066.066,0,0,0,.066-.066v-.425a.066.066,0,0,1,.066-.066h0a.066.066,0,0,1,.066.066v.425a.066.066,0,0,0,.066.066h.005a.066.066,0,0,0,.066-.066v-.425a.066.066,0,0,1,.066-.066h0a.066.066,0,0,1,.066.066v.561a.066.066,0,0,1-.066.066H59.2a.066.066,0,0,1-.066-.066v-.143a.066.066,0,0,0-.066-.066h-.274a.066.066,0,0,0-.066.066v.007a.066.066,0,0,0,.066.066h.14a.066.066,0,0,1,.066.066v0A.066.066,0,0,1,58.931,180.294Z" transform="translate(-54.506 -179.601)" fill="#f5f5f5"/>
      <path id="Tracé_2870" data-name="Tracé 2870" d="M114.491,180.294h0a.066.066,0,0,0,.066-.066v-.143a.066.066,0,0,1,.066-.066h.276a.066.066,0,0,1,.066.066v.143a.066.066,0,0,0,.066.066h.549a.066.066,0,0,0,.066-.066v-.283a.066.066,0,0,0-.066-.066h-.275a.066.066,0,0,0-.066.066v.007a.066.066,0,0,0,.066.066h.14a.066.066,0,0,1,.066.066v.007a.066.066,0,0,1-.066.066h-.277a.066.066,0,0,1-.066-.066v-.147a.066.066,0,0,0-.066-.066h-.547a.066.066,0,0,0-.066.066v.283A.066.066,0,0,0,114.491,180.294Zm.272,0h0a.066.066,0,0,0,.066-.066v0a.066.066,0,0,0-.066-.066h0a.066.066,0,0,0-.066.066v0A.066.066,0,0,0,114.763,180.294Zm-.272-.554h1.638a.066.066,0,0,0,.066-.066v-.007a.066.066,0,0,0-.066-.066h-1.638a.066.066,0,0,0-.066.066v.007A.066.066,0,0,0,114.491,179.74Zm1.638.554h-.277a.066.066,0,0,1-.066-.066v-.283a.066.066,0,0,1,.066-.066h.411a.066.066,0,0,0,.066-.066v-.147a.066.066,0,0,1,.066-.066h0a.066.066,0,0,1,.066.066v.425a.066.066,0,0,0,.066.066h.005a.066.066,0,0,0,.066-.066v-.425a.066.066,0,0,1,.066-.066h.005a.066.066,0,0,1,.066.066v.425a.066.066,0,0,0,.066.066h0a.066.066,0,0,0,.066-.066v-.425a.066.066,0,0,1,.066-.066h0a.066.066,0,0,1,.066.066v.561a.066.066,0,0,1-.066.066H116.4a.066.066,0,0,1-.066-.066v-.143a.066.066,0,0,0-.066-.066h-.275a.066.066,0,0,0-.066.066v.007a.066.066,0,0,0,.066.066h.141a.066.066,0,0,1,.066.066v0A.066.066,0,0,1,116.129,180.294Z" transform="translate(-108.981 -179.601)" fill="#f5f5f5"/>
      <path id="Tracé_2871" data-name="Tracé 2871" d="M171.684,180.294h0a.066.066,0,0,0,.066-.066v-.143a.066.066,0,0,1,.066-.066h.275a.066.066,0,0,1,.066.066v.143a.066.066,0,0,0,.066.066h.549a.066.066,0,0,0,.066-.066v-.283a.066.066,0,0,0-.066-.066H172.5a.066.066,0,0,0-.066.066v.007a.066.066,0,0,0,.066.066h.14a.066.066,0,0,1,.066.066v.007a.066.066,0,0,1-.066.066h-.275a.066.066,0,0,1-.066-.066v-.147a.066.066,0,0,0-.066-.066h-.547a.066.066,0,0,0-.066.066v.283A.066.066,0,0,0,171.684,180.294Zm.272,0h0a.066.066,0,0,0,.066-.066v0a.066.066,0,0,0-.066-.066h0a.066.066,0,0,0-.066.066v0A.066.066,0,0,0,171.956,180.294Zm-.272-.554h1.636a.066.066,0,0,0,.066-.066v-.007a.066.066,0,0,0-.066-.066h-1.636a.066.066,0,0,0-.066.066v.007A.066.066,0,0,0,171.684,179.74Zm1.636.554h-.277a.066.066,0,0,1-.066-.066v-.283a.066.066,0,0,1,.066-.066h.415a.066.066,0,0,0,.066-.066v-.147a.066.066,0,0,1,.066-.066h0a.066.066,0,0,1,.066.066v.425a.066.066,0,0,0,.066.066h0a.066.066,0,0,0,.066-.066v-.425a.066.066,0,0,1,.066-.066h.005a.066.066,0,0,1,.066.066v.425a.066.066,0,0,0,.066.066h0a.066.066,0,0,0,.066-.066v-.425a.066.066,0,0,1,.066-.066h0a.066.066,0,0,1,.066.066v.561a.066.066,0,0,1-.066.066h-.547a.066.066,0,0,1-.066-.066v-.143a.066.066,0,0,0-.066-.066h-.277a.066.066,0,0,0-.066.066v.007a.066.066,0,0,0,.066.066h.14a.066.066,0,0,1,.066.066v0A.066.066,0,0,1,173.32,180.294Z" transform="translate(-163.453 -179.601)" fill="#f5f5f5"/>
      <path id="Tracé_2872" data-name="Tracé 2872" d="M228.877,180.294h0a.066.066,0,0,0,.066-.066v-.143a.066.066,0,0,1,.066-.066h.275a.066.066,0,0,1,.066.066v.143a.066.066,0,0,0,.066.066h.549a.066.066,0,0,0,.066-.066v-.283a.066.066,0,0,0-.066-.066h-.277a.066.066,0,0,0-.066.066v.007a.066.066,0,0,0,.066.066h.141a.066.066,0,0,1,.066.066v.007a.066.066,0,0,1-.066.066h-.275a.066.066,0,0,1-.066-.066v-.147a.066.066,0,0,0-.066-.066h-.549a.066.066,0,0,0-.066.066v.283A.066.066,0,0,0,228.877,180.294Zm.274,0h0a.066.066,0,0,0,.066-.066v0a.066.066,0,0,0-.066-.066h0a.066.066,0,0,0-.066.066v0A.066.066,0,0,0,229.151,180.294Zm-.274-.554h1.638a.066.066,0,0,0,.066-.066v-.007a.066.066,0,0,0-.066-.066h-1.638a.066.066,0,0,0-.066.066v.007A.066.066,0,0,0,228.877,179.74Zm1.638.554h-.277a.066.066,0,0,1-.066-.066v-.283a.066.066,0,0,1,.066-.066h.413a.066.066,0,0,0,.066-.066v-.147a.066.066,0,0,1,.066-.066h0a.066.066,0,0,1,.066.066v.425a.066.066,0,0,0,.066.066h0a.066.066,0,0,0,.066-.066v-.425a.066.066,0,0,1,.066-.066h0a.066.066,0,0,1,.066.066v.425a.066.066,0,0,0,.066.066h0a.066.066,0,0,0,.066-.066v-.425a.066.066,0,0,1,.066-.066h0a.066.066,0,0,1,.066.066v.561a.066.066,0,0,1-.066.066h-.547a.066.066,0,0,1-.066-.066v-.143a.066.066,0,0,0-.066-.066h-.277a.066.066,0,0,0-.066.066v.007a.066.066,0,0,0,.066.066h.141a.066.066,0,0,1,.066.066v0A.066.066,0,0,1,230.515,180.294Z" transform="translate(-217.925 -179.601)" fill="#f5f5f5"/>
      <path id="Tracé_2873" data-name="Tracé 2873" d="M286.072,180.294h0a.066.066,0,0,0,.066-.066v-.143a.066.066,0,0,1,.066-.066h.275a.066.066,0,0,1,.066.066v.143a.066.066,0,0,0,.066.066h.549a.066.066,0,0,0,.066-.066v-.283a.066.066,0,0,0-.066-.066h-.276a.066.066,0,0,0-.066.066v.007a.066.066,0,0,0,.066.066h.138a.066.066,0,0,1,.066.066v.007a.066.066,0,0,1-.066.066h-.274a.066.066,0,0,1-.066-.066v-.147a.066.066,0,0,0-.066-.066h-.549a.066.066,0,0,0-.066.066v.283A.066.066,0,0,0,286.072,180.294Zm.274,0h0a.066.066,0,0,0,.066-.066v0a.066.066,0,0,0-.066-.066h0a.066.066,0,0,0-.066.066v0A.066.066,0,0,0,286.346,180.294Zm-.274-.554h1.638a.066.066,0,0,0,.066-.066v-.007a.066.066,0,0,0-.066-.066h-1.638a.066.066,0,0,0-.066.066v.007A.066.066,0,0,0,286.072,179.74Zm1.638.554h-.275a.066.066,0,0,1-.066-.066v-.283a.066.066,0,0,1,.066-.066h.411a.066.066,0,0,0,.066-.066v-.147a.066.066,0,0,1,.066-.066h0a.066.066,0,0,1,.066.066v.425a.066.066,0,0,0,.066.066h0a.066.066,0,0,0,.066-.066v-.425a.066.066,0,0,1,.066-.066h0a.066.066,0,0,1,.066.066v.425a.066.066,0,0,0,.066.066h0a.066.066,0,0,0,.066-.066v-.425a.066.066,0,0,1,.066-.066h0a.066.066,0,0,1,.066.066v.561a.066.066,0,0,1-.066.066h-.547a.066.066,0,0,1-.066-.066v-.143a.066.066,0,0,0-.066-.066h-.277a.066.066,0,0,0-.066.066v.007a.066.066,0,0,0,.066.066h.141a.066.066,0,0,1,.066.066v0A.066.066,0,0,1,287.71,180.294Z" transform="translate(-272.399 -179.601)" fill="#f5f5f5"/>
      <path id="Tracé_2874" data-name="Tracé 2874" d="M343.266,180.294h0a.066.066,0,0,0,.066-.066v-.143a.066.066,0,0,1,.066-.066h.277a.066.066,0,0,1,.066.066v.143a.066.066,0,0,0,.066.066h.547a.066.066,0,0,0,.066-.066v-.283a.066.066,0,0,0-.066-.066h-.276a.066.066,0,0,0-.066.066v.007a.066.066,0,0,0,.066.066h.141a.066.066,0,0,1,.066.066v.007a.066.066,0,0,1-.066.066h-.279a.066.066,0,0,1-.066-.066v-.147a.066.066,0,0,0-.066-.066h-.547a.066.066,0,0,0-.066.066v.283A.066.066,0,0,0,343.266,180.294Zm.272,0h.005a.066.066,0,0,0,.066-.066v0a.066.066,0,0,0-.066-.066h-.005a.066.066,0,0,0-.066.066v0A.066.066,0,0,0,343.538,180.294Zm-.272-.554H344.9a.066.066,0,0,0,.066-.066v-.007a.066.066,0,0,0-.066-.066h-1.638a.066.066,0,0,0-.066.066v.007A.066.066,0,0,0,343.266,179.74Zm1.638.554h-.275a.066.066,0,0,1-.066-.066v-.283a.066.066,0,0,1,.066-.066h.411a.066.066,0,0,0,.066-.066v-.147a.066.066,0,0,1,.066-.066h0a.066.066,0,0,1,.066.066v.425a.066.066,0,0,0,.066.066h0a.066.066,0,0,0,.066-.066v-.425a.066.066,0,0,1,.066-.066h0a.066.066,0,0,1,.066.066v.425a.066.066,0,0,0,.066.066h.005a.066.066,0,0,0,.066-.066v-.425a.066.066,0,0,1,.066-.066h0a.066.066,0,0,1,.066.066v.561a.066.066,0,0,1-.066.066h-.547a.066.066,0,0,1-.066-.066v-.143a.066.066,0,0,0-.066-.066h-.274a.066.066,0,0,0-.066.066v.007a.066.066,0,0,0,.066.066h.138a.066.066,0,0,1,.066.066v0A.066.066,0,0,1,344.9,180.294Z" transform="translate(-326.872 -179.601)" fill="#f5f5f5"/>
      <path id="Tracé_2875" data-name="Tracé 2875" d="M400.5,180.294h0a.066.066,0,0,0,.066-.066v-.143a.066.066,0,0,1,.066-.066h.276a.066.066,0,0,1,.066.066v.143a.066.066,0,0,0,.066.066h.549a.066.066,0,0,0,.066-.066v-.283a.066.066,0,0,0-.066-.066h-.274a.066.066,0,0,0-.066.066v.007a.066.066,0,0,0,.066.066h.14a.066.066,0,0,1,.066.066v.007a.066.066,0,0,1-.066.066h-.277a.066.066,0,0,1-.066-.066v-.147a.066.066,0,0,0-.066-.066H400.5a.066.066,0,0,0-.066.066v.283A.066.066,0,0,0,400.5,180.294Zm.272,0h0a.066.066,0,0,0,.066-.066v0a.066.066,0,0,0-.066-.066h0a.066.066,0,0,0-.066.066v0A.066.066,0,0,0,400.769,180.294Zm-.272-.554h1.64a.066.066,0,0,0,.066-.066v-.007a.066.066,0,0,0-.066-.066H400.5a.066.066,0,0,0-.066.066v.007A.066.066,0,0,0,400.5,179.74Zm1.64.554h-.279a.066.066,0,0,1-.066-.066v-.283a.066.066,0,0,1,.066-.066h.411a.066.066,0,0,0,.066-.066v-.147a.066.066,0,0,1,.066-.066h.005a.066.066,0,0,1,.066.066v.425a.066.066,0,0,0,.066.066h0a.066.066,0,0,0,.066-.066v-.425a.066.066,0,0,1,.066-.066h0a.066.066,0,0,1,.066.066v.425a.066.066,0,0,0,.066.066h.005a.066.066,0,0,0,.066-.066v-.425a.066.066,0,0,1,.066-.066h0a.066.066,0,0,1,.066.066v.561a.066.066,0,0,1-.066.066H402.4a.066.066,0,0,1-.066-.066v-.143a.066.066,0,0,0-.066-.066h-.275a.066.066,0,0,0-.066.066v.007a.066.066,0,0,0,.066.066h.143a.066.066,0,0,1,.066.066v0A.066.066,0,0,1,402.137,180.294Z" transform="translate(-381.38 -179.601)" fill="#f5f5f5"/>
      <path id="Tracé_2876" data-name="Tracé 2876" d="M457.69,180.294h0a.066.066,0,0,0,.066-.066v-.143a.066.066,0,0,1,.066-.066h.276a.066.066,0,0,1,.066.066v.143a.066.066,0,0,0,.066.066h.549a.066.066,0,0,0,.066-.066v-.283a.066.066,0,0,0-.066-.066h-.274a.066.066,0,0,0-.066.066v.007a.066.066,0,0,0,.066.066h.14a.066.066,0,0,1,.066.066v.007a.066.066,0,0,1-.066.066h-.279a.066.066,0,0,1-.066-.066v-.147a.066.066,0,0,0-.066-.066h-.547a.066.066,0,0,0-.066.066v.283A.066.066,0,0,0,457.69,180.294Zm.272,0h0a.066.066,0,0,0,.066-.066v0a.066.066,0,0,0-.066-.066h0a.066.066,0,0,0-.066.066v0A.066.066,0,0,0,457.962,180.294Zm-.272-.554h1.636a.066.066,0,0,0,.066-.066v-.007a.066.066,0,0,0-.066-.066H457.69a.066.066,0,0,0-.066.066v.007A.066.066,0,0,0,457.69,179.74Zm1.636.554h-.276a.066.066,0,0,1-.066-.066v-.283a.066.066,0,0,1,.066-.066h.415a.066.066,0,0,0,.066-.066v-.147a.066.066,0,0,1,.066-.066h0a.066.066,0,0,1,.066.066v.425a.066.066,0,0,0,.066.066h.007a.066.066,0,0,0,.066-.066v-.425a.066.066,0,0,1,.066-.066h0a.066.066,0,0,1,.066.066v.425a.066.066,0,0,0,.066.066h0a.066.066,0,0,0,.066-.066v-.425a.066.066,0,0,1,.066-.066h.007a.066.066,0,0,1,.066.066v.561a.066.066,0,0,1-.066.066H459.6a.066.066,0,0,1-.066-.066v-.143a.066.066,0,0,0-.066-.066h-.279a.066.066,0,0,0-.066.066v.007a.066.066,0,0,0,.066.066h.14a.066.066,0,0,1,.066.066v0A.066.066,0,0,1,459.326,180.294Z" transform="translate(-435.852 -179.601)" fill="#f5f5f5"/>
      <path id="Tracé_2877" data-name="Tracé 2877" d="M.066,197.455H1.159a.066.066,0,0,0,.066-.066v-.147a.066.066,0,0,0-.066-.066H.066a.066.066,0,0,0-.066.066v.147A.066.066,0,0,0,.066,197.455Zm1.362,0H2.519a.066.066,0,0,0,.066-.066v-.147a.066.066,0,0,0-.066-.066H1.428a.066.066,0,0,0-.066.066v.147A.066.066,0,0,0,1.428,197.455Z" transform="translate(0 -196.34)" fill="#f5f5f5"/>
      <path id="Tracé_2878" data-name="Tracé 2878" d="M57.3,197.455h1.091a.066.066,0,0,0,.066-.066v-.147a.066.066,0,0,0-.066-.066H57.3a.066.066,0,0,0-.066.066v.147A.066.066,0,0,0,57.3,197.455Zm1.359,0h1.094a.066.066,0,0,0,.066-.066v-.147a.066.066,0,0,0-.066-.066H58.654a.066.066,0,0,0-.066.066v.147A.066.066,0,0,0,58.654,197.455Z" transform="translate(-54.506 -196.34)" fill="#f5f5f5"/>
      <path id="Tracé_2879" data-name="Tracé 2879" d="M114.491,197.455h1.092a.066.066,0,0,0,.066-.066v-.147a.066.066,0,0,0-.066-.066h-1.092a.066.066,0,0,0-.066.066v.147A.066.066,0,0,0,114.491,197.455Zm1.36,0h1.092a.066.066,0,0,0,.066-.066v-.147a.066.066,0,0,0-.066-.066h-1.092a.066.066,0,0,0-.066.066v.147A.066.066,0,0,0,115.852,197.455Z" transform="translate(-108.981 -196.34)" fill="#f5f5f5"/>
      <path id="Tracé_2880" data-name="Tracé 2880" d="M171.684,197.455h1.092a.066.066,0,0,0,.066-.066v-.147a.066.066,0,0,0-.066-.066h-1.092a.066.066,0,0,0-.066.066v.147A.066.066,0,0,0,171.684,197.455Zm1.359,0h1.094a.066.066,0,0,0,.066-.066v-.147a.066.066,0,0,0-.066-.066h-1.094a.066.066,0,0,0-.066.066v.147A.066.066,0,0,0,173.043,197.455Z" transform="translate(-163.453 -196.34)" fill="#f5f5f5"/>
      <path id="Tracé_2881" data-name="Tracé 2881" d="M228.877,197.455h1.093a.066.066,0,0,0,.066-.066v-.147a.066.066,0,0,0-.066-.066h-1.093a.066.066,0,0,0-.066.066v.147A.066.066,0,0,0,228.877,197.455Zm1.361,0h1.093a.066.066,0,0,0,.066-.066v-.147a.066.066,0,0,0-.066-.066h-1.093a.066.066,0,0,0-.066.066v.147A.066.066,0,0,0,230.238,197.455Z" transform="translate(-217.925 -196.34)" fill="#f5f5f5"/>
      <path id="Tracé_2882" data-name="Tracé 2882" d="M286.072,197.455h1.093a.066.066,0,0,0,.066-.066v-.147a.066.066,0,0,0-.066-.066h-1.093a.066.066,0,0,0-.066.066v.147A.066.066,0,0,0,286.072,197.455Zm1.362,0h1.091a.066.066,0,0,0,.066-.066v-.147a.066.066,0,0,0-.066-.066h-1.091a.066.066,0,0,0-.066.066v.147A.066.066,0,0,0,287.434,197.455Z" transform="translate(-272.399 -196.34)" fill="#f5f5f5"/>
      <path id="Tracé_2883" data-name="Tracé 2883" d="M343.266,197.455h1.093a.066.066,0,0,0,.066-.066v-.147a.066.066,0,0,0-.066-.066h-1.093a.066.066,0,0,0-.066.066v.147A.066.066,0,0,0,343.266,197.455Zm1.362,0h1.091a.066.066,0,0,0,.066-.066v-.147a.066.066,0,0,0-.066-.066h-1.091a.066.066,0,0,0-.066.066v.147A.066.066,0,0,0,344.628,197.455Z" transform="translate(-326.872 -196.34)" fill="#f5f5f5"/>
      <path id="Tracé_2884" data-name="Tracé 2884" d="M400.5,197.455h1.091a.066.066,0,0,0,.066-.066v-.147a.066.066,0,0,0-.066-.066H400.5a.066.066,0,0,0-.066.066v.147A.066.066,0,0,0,400.5,197.455Zm1.361,0h1.093a.066.066,0,0,0,.066-.066v-.147a.066.066,0,0,0-.066-.066h-1.093a.066.066,0,0,0-.066.066v.147A.066.066,0,0,0,401.858,197.455Z" transform="translate(-381.38 -196.34)" fill="#f5f5f5"/>
      <path id="Tracé_2885" data-name="Tracé 2885" d="M457.69,197.455h1.093a.066.066,0,0,0,.066-.066v-.147a.066.066,0,0,0-.066-.066H457.69a.066.066,0,0,0-.066.066v.147A.066.066,0,0,0,457.69,197.455Zm1.361,0h1.094a.066.066,0,0,0,.066-.066v-.147a.066.066,0,0,0-.066-.066h-1.094a.066.066,0,0,0-.066.066v.147A.066.066,0,0,0,459.051,197.455Z" transform="translate(-435.852 -196.34)" fill="#f5f5f5"/>
      <path id="Tracé_2886" data-name="Tracé 2886" d="M460.181,317.826h0a.066.066,0,0,0-.066.066v.143a.066.066,0,0,1-.066.066h-.277a.066.066,0,0,1-.066-.066v-.143a.066.066,0,0,0-.066-.066h-.547a.066.066,0,0,0-.066.066v.283a.066.066,0,0,0,.066.066h.275a.066.066,0,0,0,.066-.066v-.007a.066.066,0,0,0-.066-.066h-.14a.066.066,0,0,1-.066-.066v-.007a.066.066,0,0,1,.066-.066h.276a.066.066,0,0,1,.066.066v.147a.066.066,0,0,0,.066.066h.549a.066.066,0,0,0,.066-.066v-.283A.066.066,0,0,0,460.181,317.826Zm-.273,0h0a.066.066,0,0,0-.066.066v0a.066.066,0,0,0,.066.066h0a.066.066,0,0,0,.066-.066v0A.066.066,0,0,0,459.908,317.826Zm.273.554h-1.638a.066.066,0,0,0-.066.066v.007a.066.066,0,0,0,.066.066h1.638a.066.066,0,0,0,.066-.066v-.007A.066.066,0,0,0,460.181,318.38Zm-1.638-.554h.275a.066.066,0,0,1,.066.066v.283a.066.066,0,0,1-.066.066h-.411a.066.066,0,0,0-.066.066v.147a.066.066,0,0,1-.066.066h0a.066.066,0,0,1-.066-.066v-.425a.066.066,0,0,0-.066-.066h0a.066.066,0,0,0-.066.066v.425a.066.066,0,0,1-.066.066h0a.066.066,0,0,1-.066-.066v-.425a.066.066,0,0,0-.066-.066h-.005a.066.066,0,0,0-.066.066v.425a.066.066,0,0,1-.066.066h0a.066.066,0,0,1-.066-.066v-.561a.066.066,0,0,1,.066-.066h.547a.066.066,0,0,1,.066.066v.143a.066.066,0,0,0,.066.066h.275a.066.066,0,0,0,.066-.066v-.007a.066.066,0,0,0-.066-.066h-.14a.066.066,0,0,1-.066-.066v0A.066.066,0,0,1,458.543,317.826Z" transform="translate(-435.888 -311.25)" fill="#f5f5f5"/>
      <path id="Tracé_2887" data-name="Tracé 2887" d="M402.949,317.826h-.005a.066.066,0,0,0-.066.066v.143a.066.066,0,0,1-.066.066h-.274a.066.066,0,0,1-.066-.066v-.143a.066.066,0,0,0-.066-.066h-.547a.066.066,0,0,0-.066.066v.283a.066.066,0,0,0,.066.066h.276a.066.066,0,0,0,.066-.066v-.007a.066.066,0,0,0-.066-.066h-.14a.066.066,0,0,1-.066-.066v-.007a.066.066,0,0,1,.066-.066h.276a.066.066,0,0,1,.066.066v.147a.066.066,0,0,0,.066.066h.547a.066.066,0,0,0,.066-.066v-.283A.066.066,0,0,0,402.949,317.826Zm-.272,0h0a.066.066,0,0,0-.066.066v0a.066.066,0,0,0,.066.066h0a.066.066,0,0,0,.066-.066v0A.066.066,0,0,0,402.677,317.826Zm.272.554h-1.636a.066.066,0,0,0-.066.066v.007a.066.066,0,0,0,.066.066h1.636a.066.066,0,0,0,.066-.066v-.007A.066.066,0,0,0,402.949,318.38Zm-1.636-.554h.277a.066.066,0,0,1,.066.066v.283a.066.066,0,0,1-.066.066h-.411a.066.066,0,0,0-.066.066v.147a.066.066,0,0,1-.066.066h-.005a.066.066,0,0,1-.066-.066v-.425a.066.066,0,0,0-.066-.066H400.9a.066.066,0,0,0-.066.066v.425a.066.066,0,0,1-.066.066h0a.066.066,0,0,1-.066-.066v-.425a.066.066,0,0,0-.066-.066h-.005a.066.066,0,0,0-.066.066v.425a.066.066,0,0,1-.066.066h0a.066.066,0,0,1-.066-.066v-.561a.066.066,0,0,1,.066-.066h.551a.066.066,0,0,1,.066.066v.143a.066.066,0,0,0,.066.066h.274a.066.066,0,0,0,.066-.066v-.007a.066.066,0,0,0-.066-.066h-.14a.066.066,0,0,1-.066-.066v0A.066.066,0,0,1,401.313,317.826Z" transform="translate(-381.379 -311.25)" fill="#f5f5f5"/>
      <path id="Tracé_2888" data-name="Tracé 2888" d="M345.755,317.826h0a.066.066,0,0,0-.066.066v.143a.066.066,0,0,1-.066.066h-.276a.066.066,0,0,1-.066-.066v-.143a.066.066,0,0,0-.066-.066h-.549a.066.066,0,0,0-.066.066v.283a.066.066,0,0,0,.066.066h.276a.066.066,0,0,0,.066-.066v-.007a.066.066,0,0,0-.066-.066h-.14a.066.066,0,0,1-.066-.066v-.007a.066.066,0,0,1,.066-.066h.277a.066.066,0,0,1,.066.066v.147a.066.066,0,0,0,.066.066h.547a.066.066,0,0,0,.066-.066v-.283A.066.066,0,0,0,345.755,317.826Zm-.272,0h0a.066.066,0,0,0-.066.066v0a.066.066,0,0,0,.066.066h0a.066.066,0,0,0,.066-.066v0A.066.066,0,0,0,345.483,317.826Zm.272.554h-1.638a.066.066,0,0,0-.066.066v.007a.066.066,0,0,0,.066.066h1.638a.066.066,0,0,0,.066-.066v-.007A.066.066,0,0,0,345.755,318.38Zm-1.638-.554h.277a.066.066,0,0,1,.066.066v.283a.066.066,0,0,1-.066.066h-.411a.066.066,0,0,0-.066.066v.147a.066.066,0,0,1-.066.066h0a.066.066,0,0,1-.066-.066v-.425a.066.066,0,0,0-.066-.066h-.005a.066.066,0,0,0-.066.066v.425a.066.066,0,0,1-.066.066h-.005a.066.066,0,0,1-.066-.066v-.425a.066.066,0,0,0-.066-.066h0a.066.066,0,0,0-.066.066v.425a.066.066,0,0,1-.066.066h0a.066.066,0,0,1-.066-.066v-.561a.066.066,0,0,1,.066-.066h.549a.066.066,0,0,1,.066.066v.143a.066.066,0,0,0,.066.066h.275a.066.066,0,0,0,.066-.066v-.007a.066.066,0,0,0-.066-.066h-.141a.066.066,0,0,1-.066-.066v0A.066.066,0,0,1,344.117,317.826Z" transform="translate(-326.906 -311.25)" fill="#f5f5f5"/>
      <path id="Tracé_2889" data-name="Tracé 2889" d="M288.561,317.826h0a.066.066,0,0,0-.066.066v.143a.066.066,0,0,1-.066.066h-.275a.066.066,0,0,1-.066-.066v-.143a.066.066,0,0,0-.066-.066h-.549a.066.066,0,0,0-.066.066v.283a.066.066,0,0,0,.066.066h.277a.066.066,0,0,0,.066-.066v-.007a.066.066,0,0,0-.066-.066h-.14a.066.066,0,0,1-.066-.066v-.007a.066.066,0,0,1,.066-.066h.275a.066.066,0,0,1,.066.066v.147a.066.066,0,0,0,.066.066h.547a.066.066,0,0,0,.066-.066v-.283A.066.066,0,0,0,288.561,317.826Zm-.272,0h0a.066.066,0,0,0-.066.066v0a.066.066,0,0,0,.066.066h0a.066.066,0,0,0,.066-.066v0A.066.066,0,0,0,288.289,317.826Zm.272.554h-1.636a.066.066,0,0,0-.066.066v.007a.066.066,0,0,0,.066.066h1.636a.066.066,0,0,0,.066-.066v-.007A.066.066,0,0,0,288.561,318.38Zm-1.636-.554h.277a.066.066,0,0,1,.066.066v.283a.066.066,0,0,1-.066.066h-.415a.066.066,0,0,0-.066.066v.147a.066.066,0,0,1-.066.066h0a.066.066,0,0,1-.066-.066v-.425a.066.066,0,0,0-.066-.066h0a.066.066,0,0,0-.066.066v.425a.066.066,0,0,1-.066.066h-.005a.066.066,0,0,1-.066-.066v-.425a.066.066,0,0,0-.066-.066h0a.066.066,0,0,0-.066.066v.425a.066.066,0,0,1-.066.066h0a.066.066,0,0,1-.066-.066v-.561a.066.066,0,0,1,.066-.066h.547a.066.066,0,0,1,.066.066v.143a.066.066,0,0,0,.066.066h.277a.066.066,0,0,0,.066-.066v-.007a.066.066,0,0,0-.066-.066h-.14a.066.066,0,0,1-.066-.066v0A.066.066,0,0,1,286.925,317.826Z" transform="translate(-272.433 -311.25)" fill="#f5f5f5"/>
      <path id="Tracé_2890" data-name="Tracé 2890" d="M231.368,317.826h0a.066.066,0,0,0-.066.066v.143a.066.066,0,0,1-.066.066h-.275a.066.066,0,0,1-.066-.066v-.143a.066.066,0,0,0-.066-.066h-.549a.066.066,0,0,0-.066.066v.283a.066.066,0,0,0,.066.066h.277a.066.066,0,0,0,.066-.066v-.007a.066.066,0,0,0-.066-.066h-.141a.066.066,0,0,1-.066-.066v-.007a.066.066,0,0,1,.066-.066h.275a.066.066,0,0,1,.066.066v.147a.066.066,0,0,0,.066.066h.549a.066.066,0,0,0,.066-.066v-.283A.066.066,0,0,0,231.368,317.826Zm-.274,0h0a.066.066,0,0,0-.066.066v0a.066.066,0,0,0,.066.066h0a.066.066,0,0,0,.066-.066v0A.066.066,0,0,0,231.095,317.826Zm.274.554H229.73a.066.066,0,0,0-.066.066v.007a.066.066,0,0,0,.066.066h1.638a.066.066,0,0,0,.066-.066v-.007A.066.066,0,0,0,231.368,318.38Zm-1.638-.554h.277a.066.066,0,0,1,.066.066v.283a.066.066,0,0,1-.066.066h-.413a.066.066,0,0,0-.066.066v.147a.066.066,0,0,1-.066.066h0a.066.066,0,0,1-.066-.066v-.425a.066.066,0,0,0-.066-.066h0a.066.066,0,0,0-.066.066v.425a.066.066,0,0,1-.066.066h0a.066.066,0,0,1-.066-.066v-.425a.066.066,0,0,0-.066-.066h0a.066.066,0,0,0-.066.066v.425a.066.066,0,0,1-.066.066h0a.066.066,0,0,1-.066-.066v-.561a.066.066,0,0,1,.066-.066h.547a.066.066,0,0,1,.066.066v.143a.066.066,0,0,0,.066.066h.277a.066.066,0,0,0,.066-.066v-.007a.066.066,0,0,0-.066-.066h-.141a.066.066,0,0,1-.066-.066v0A.066.066,0,0,1,229.73,317.826Z" transform="translate(-217.961 -311.25)" fill="#f5f5f5"/>
      <path id="Tracé_2891" data-name="Tracé 2891" d="M174.173,317.826h0a.066.066,0,0,0-.066.066v.143a.066.066,0,0,1-.066.066h-.275a.066.066,0,0,1-.066-.066v-.143a.066.066,0,0,0-.066-.066h-.549a.066.066,0,0,0-.066.066v.283a.066.066,0,0,0,.066.066h.276a.066.066,0,0,0,.066-.066v-.007a.066.066,0,0,0-.066-.066h-.138a.066.066,0,0,1-.066-.066v-.007a.066.066,0,0,1,.066-.066h.274a.066.066,0,0,1,.066.066v.147a.066.066,0,0,0,.066.066h.549a.066.066,0,0,0,.066-.066v-.283A.066.066,0,0,0,174.173,317.826Zm-.274,0h0a.066.066,0,0,0-.066.066v0a.066.066,0,0,0,.066.066h0a.066.066,0,0,0,.066-.066v0A.066.066,0,0,0,173.9,317.826Zm.274.554h-1.638a.066.066,0,0,0-.066.066v.007a.066.066,0,0,0,.066.066h1.638a.066.066,0,0,0,.066-.066v-.007A.066.066,0,0,0,174.173,318.38Zm-1.638-.554h.275a.066.066,0,0,1,.066.066v.283a.066.066,0,0,1-.066.066H172.4a.066.066,0,0,0-.066.066v.147a.066.066,0,0,1-.066.066h0a.066.066,0,0,1-.066-.066v-.425a.066.066,0,0,0-.066-.066h0a.066.066,0,0,0-.066.066v.425a.066.066,0,0,1-.066.066h0a.066.066,0,0,1-.066-.066v-.425a.066.066,0,0,0-.066-.066h0a.066.066,0,0,0-.066.066v.425a.066.066,0,0,1-.066.066h0a.066.066,0,0,1-.066-.066v-.561a.066.066,0,0,1,.066-.066h.547a.066.066,0,0,1,.066.066v.143a.066.066,0,0,0,.066.066h.277a.066.066,0,0,0,.066-.066v-.007a.066.066,0,0,0-.066-.066h-.141a.066.066,0,0,1-.066-.066v0A.066.066,0,0,1,172.535,317.826Z" transform="translate(-163.487 -311.25)" fill="#f5f5f5"/>
      <path id="Tracé_2892" data-name="Tracé 2892" d="M116.978,317.826h0a.066.066,0,0,0-.066.066v.143a.066.066,0,0,1-.066.066h-.277a.066.066,0,0,1-.066-.066v-.143a.066.066,0,0,0-.066-.066h-.547a.066.066,0,0,0-.066.066v.283a.066.066,0,0,0,.066.066h.276a.066.066,0,0,0,.066-.066v-.007a.066.066,0,0,0-.066-.066h-.141a.066.066,0,0,1-.066-.066v-.007a.066.066,0,0,1,.066-.066h.279a.066.066,0,0,1,.066.066v.147a.066.066,0,0,0,.066.066h.547a.066.066,0,0,0,.066-.066v-.283A.066.066,0,0,0,116.978,317.826Zm-.272,0H116.7a.066.066,0,0,0-.066.066v0a.066.066,0,0,0,.066.066h.005a.066.066,0,0,0,.066-.066v0A.066.066,0,0,0,116.706,317.826Zm.272.554H115.34a.066.066,0,0,0-.066.066v.007a.066.066,0,0,0,.066.066h1.638a.066.066,0,0,0,.066-.066v-.007A.066.066,0,0,0,116.978,318.38Zm-1.638-.554h.275a.066.066,0,0,1,.066.066v.283a.066.066,0,0,1-.066.066H115.2a.066.066,0,0,0-.066.066v.147a.066.066,0,0,1-.066.066h0a.066.066,0,0,1-.066-.066v-.425a.066.066,0,0,0-.066-.066h0a.066.066,0,0,0-.066.066v.425a.066.066,0,0,1-.066.066h0a.066.066,0,0,1-.066-.066v-.425a.066.066,0,0,0-.066-.066h-.005a.066.066,0,0,0-.066.066v.425a.066.066,0,0,1-.066.066h0a.066.066,0,0,1-.066-.066v-.561a.066.066,0,0,1,.066-.066h.547a.066.066,0,0,1,.066.066v.143a.066.066,0,0,0,.066.066h.274a.066.066,0,0,0,.066-.066v-.007a.066.066,0,0,0-.066-.066h-.138a.066.066,0,0,1-.066-.066v0A.066.066,0,0,1,115.34,317.826Z" transform="translate(-109.013 -311.25)" fill="#f5f5f5"/>
      <path id="Tracé_2893" data-name="Tracé 2893" d="M59.748,317.826h0a.066.066,0,0,0-.066.066v.143a.066.066,0,0,1-.066.066h-.276a.066.066,0,0,1-.066-.066v-.143a.066.066,0,0,0-.066-.066h-.549a.066.066,0,0,0-.066.066v.283a.066.066,0,0,0,.066.066h.274a.066.066,0,0,0,.066-.066v-.007a.066.066,0,0,0-.066-.066h-.14a.066.066,0,0,1-.066-.066v-.007a.066.066,0,0,1,.066-.066h.277a.066.066,0,0,1,.066.066v.147a.066.066,0,0,0,.066.066h.547a.066.066,0,0,0,.066-.066v-.283A.066.066,0,0,0,59.748,317.826Zm-.272,0h0a.066.066,0,0,0-.066.066v0a.066.066,0,0,0,.066.066h0a.066.066,0,0,0,.066-.066v0A.066.066,0,0,0,59.476,317.826Zm.272.554h-1.64a.066.066,0,0,0-.066.066v.007a.066.066,0,0,0,.066.066h1.64a.066.066,0,0,0,.066-.066v-.007A.066.066,0,0,0,59.748,318.38Zm-1.64-.554h.279a.066.066,0,0,1,.066.066v.283a.066.066,0,0,1-.066.066h-.411a.066.066,0,0,0-.066.066v.147a.066.066,0,0,1-.066.066h-.005a.066.066,0,0,1-.066-.066v-.425a.066.066,0,0,0-.066-.066h0a.066.066,0,0,0-.066.066v.425a.066.066,0,0,1-.066.066h0a.066.066,0,0,1-.066-.066v-.425a.066.066,0,0,0-.066-.066h-.005a.066.066,0,0,0-.066.066v.425a.066.066,0,0,1-.066.066h0a.066.066,0,0,1-.066-.066v-.561a.066.066,0,0,1,.066-.066h.549a.066.066,0,0,1,.066.066v.143a.066.066,0,0,0,.066.066h.275a.066.066,0,0,0,.066-.066v-.007a.066.066,0,0,0-.066-.066h-.143a.066.066,0,0,1-.066-.066v0A.066.066,0,0,1,58.109,317.826Z" transform="translate(-54.506 -311.25)" fill="#f5f5f5"/>
      <path id="Tracé_2894" data-name="Tracé 2894" d="M2.521,317.826h0a.066.066,0,0,0-.066.066v.143a.066.066,0,0,1-.066.066H2.109a.066.066,0,0,1-.066-.066v-.143a.066.066,0,0,0-.066-.066H1.428a.066.066,0,0,0-.066.066v.283a.066.066,0,0,0,.066.066H1.7a.066.066,0,0,0,.066-.066v-.007A.066.066,0,0,0,1.7,318.1h-.14a.066.066,0,0,1-.066-.066v-.007a.066.066,0,0,1,.066-.066h.279a.066.066,0,0,1,.066.066v.147a.066.066,0,0,0,.066.066h.547a.066.066,0,0,0,.066-.066v-.283A.066.066,0,0,0,2.521,317.826Zm-.272,0h0a.066.066,0,0,0-.066.066v0a.066.066,0,0,0,.066.066h0a.066.066,0,0,0,.066-.066v0A.066.066,0,0,0,2.249,317.826Zm.272.554H.885a.066.066,0,0,0-.066.066v.007a.066.066,0,0,0,.066.066H2.521a.066.066,0,0,0,.066-.066v-.007A.066.066,0,0,0,2.521,318.38Zm-1.636-.554H1.16a.066.066,0,0,1,.066.066v.283a.066.066,0,0,1-.066.066H.746a.066.066,0,0,0-.066.066v.147a.066.066,0,0,1-.066.066h0a.066.066,0,0,1-.066-.066v-.425a.066.066,0,0,0-.066-.066H.474a.066.066,0,0,0-.066.066v.425a.066.066,0,0,1-.066.066h0a.066.066,0,0,1-.066-.066v-.425a.066.066,0,0,0-.066-.066h0a.066.066,0,0,0-.066.066v.425a.066.066,0,0,1-.066.066H.066A.066.066,0,0,1,0,318.453v-.561a.066.066,0,0,1,.066-.066H.613a.066.066,0,0,1,.066.066v.143a.066.066,0,0,0,.066.066h.279a.066.066,0,0,0,.066-.066v-.007a.066.066,0,0,0-.066-.066H.885a.066.066,0,0,1-.066-.066v0A.066.066,0,0,1,.885,317.826Z" transform="translate(0 -311.25)" fill="#f5f5f5"/>
      <path id="Tracé_2895" data-name="Tracé 2895" d="M460.181,308.966h-1.092a.066.066,0,0,0-.066.066v.147a.066.066,0,0,0,.066.066h1.092a.066.066,0,0,0,.066-.066v-.147A.066.066,0,0,0,460.181,308.966Zm-1.362,0h-1.091a.066.066,0,0,0-.066.066v.147a.066.066,0,0,0,.066.066h1.091a.066.066,0,0,0,.066-.066v-.147A.066.066,0,0,0,458.819,308.966Z" transform="translate(-435.888 -302.811)" fill="#f5f5f5"/>
      <path id="Tracé_2896" data-name="Tracé 2896" d="M402.951,308.966H401.86a.066.066,0,0,0-.066.066v.147a.066.066,0,0,0,.066.066h1.091a.066.066,0,0,0,.066-.066v-.147A.066.066,0,0,0,402.951,308.966Zm-1.359,0H400.5a.066.066,0,0,0-.066.066v.147a.066.066,0,0,0,.066.066h1.094a.066.066,0,0,0,.066-.066v-.147A.066.066,0,0,0,401.592,308.966Z" transform="translate(-381.381 -302.811)" fill="#f5f5f5"/>
      <path id="Tracé_2897" data-name="Tracé 2897" d="M345.757,308.966h-1.092a.066.066,0,0,0-.066.066v.147a.066.066,0,0,0,.066.066h1.092a.066.066,0,0,0,.066-.066v-.147A.066.066,0,0,0,345.757,308.966Zm-1.36,0H343.3a.066.066,0,0,0-.066.066v.147a.066.066,0,0,0,.066.066H344.4a.066.066,0,0,0,.066-.066v-.147A.066.066,0,0,0,344.4,308.966Z" transform="translate(-326.908 -302.811)" fill="#f5f5f5"/>
      <path id="Tracé_2898" data-name="Tracé 2898" d="M288.562,308.966H287.47a.066.066,0,0,0-.066.066v.147a.066.066,0,0,0,.066.066h1.092a.066.066,0,0,0,.066-.066v-.147A.066.066,0,0,0,288.562,308.966Zm-1.359,0h-1.094a.066.066,0,0,0-.066.066v.147a.066.066,0,0,0,.066.066H287.2a.066.066,0,0,0,.066-.066v-.147A.066.066,0,0,0,287.2,308.966Z" transform="translate(-272.434 -302.811)" fill="#f5f5f5"/>
      <path id="Tracé_2899" data-name="Tracé 2899" d="M231.368,308.966h-1.093a.066.066,0,0,0-.066.066v.147a.066.066,0,0,0,.066.066h1.093a.066.066,0,0,0,.066-.066v-.147A.066.066,0,0,0,231.368,308.966Zm-1.361,0h-1.093a.066.066,0,0,0-.066.066v.147a.066.066,0,0,0,.066.066h1.093a.066.066,0,0,0,.066-.066v-.147A.066.066,0,0,0,230.008,308.966Z" transform="translate(-217.961 -302.811)" fill="#f5f5f5"/>
      <path id="Tracé_2900" data-name="Tracé 2900" d="M174.173,308.966h-1.093a.066.066,0,0,0-.066.066v.147a.066.066,0,0,0,.066.066h1.093a.066.066,0,0,0,.066-.066v-.147A.066.066,0,0,0,174.173,308.966Zm-1.362,0H171.72a.066.066,0,0,0-.066.066v.147a.066.066,0,0,0,.066.066h1.091a.066.066,0,0,0,.066-.066v-.147A.066.066,0,0,0,172.811,308.966Z" transform="translate(-163.487 -302.811)" fill="#f5f5f5"/>
      <path id="Tracé_2901" data-name="Tracé 2901" d="M116.981,308.966h-1.093a.066.066,0,0,0-.066.066v.147a.066.066,0,0,0,.066.066h1.093a.066.066,0,0,0,.066-.066v-.147A.066.066,0,0,0,116.981,308.966Zm-1.362,0h-1.091a.066.066,0,0,0-.066.066v.147a.066.066,0,0,0,.066.066h1.091a.066.066,0,0,0,.066-.066v-.147A.066.066,0,0,0,115.619,308.966Z" transform="translate(-109.016 -302.811)" fill="#f5f5f5"/>
      <path id="Tracé_2902" data-name="Tracé 2902" d="M59.748,308.966H58.657a.066.066,0,0,0-.066.066v.147a.066.066,0,0,0,.066.066h1.091a.066.066,0,0,0,.066-.066v-.147A.066.066,0,0,0,59.748,308.966Zm-1.361,0H57.3a.066.066,0,0,0-.066.066v.147a.066.066,0,0,0,.066.066h1.093a.066.066,0,0,0,.066-.066v-.147A.066.066,0,0,0,58.388,308.966Z" transform="translate(-54.506 -302.811)" fill="#f5f5f5"/>
      <path id="Tracé_2903" data-name="Tracé 2903" d="M2.521,308.966H1.428a.066.066,0,0,0-.066.066v.147a.066.066,0,0,0,.066.066H2.521a.066.066,0,0,0,.066-.066v-.147A.066.066,0,0,0,2.521,308.966Zm-1.361,0H.066a.066.066,0,0,0-.066.066v.147a.066.066,0,0,0,.066.066H1.16a.066.066,0,0,0,.066-.066v-.147A.066.066,0,0,0,1.16,308.966Z" transform="translate(0 -302.811)" fill="#f5f5f5"/>
    </g>
    <g id="Groupe_6703" data-name="Groupe 6703" transform="translate(9.7 93.832)">
      <path id="Tracé_2904" data-name="Tracé 2904" d="M243.314,205.494a1.541,1.541,0,0,1,.856-.09.36.36,0,0,0,.1-.349.414.414,0,0,1-.573.136c-.01-.007-.023-.013-.032-.02a.421.421,0,0,1-.585-.083,5.027,5.027,0,1,0,.236.405Z" transform="translate(-241.182 -205.055)" fill="#ff4b55"/>
      <path id="Tracé_2905" data-name="Tracé 2905" d="M224.119,221.079a2.265,2.265,0,0,0,.487-3.635.027.027,0,0,0-.041.034,2.464,2.464,0,0,1-.618,3.248l.049-3.11a.138.138,0,0,0-.051-.109l-.165-.134a.137.137,0,0,0-.173,0l-.163.133a.137.137,0,0,0-.05.108l.047,3.112a2.467,2.467,0,0,1-.62-3.25.027.027,0,0,0-.041-.034,2.265,2.265,0,0,0,.487,3.635,2.509,2.509,0,0,1-.885.14.027.027,0,0,0-.008.053,2.253,2.253,0,0,0,1.15.041l.146.283a.027.027,0,0,0,.048,0l.147-.283a2.256,2.256,0,0,0,1.15-.042.027.027,0,0,0-.008-.053A2.515,2.515,0,0,1,224.119,221.079Z" transform="translate(-221.213 -216.759)" fill="#ff4b55"/>
      <path id="Tracé_2906" data-name="Tracé 2906" d="M281.213,216.851a1.928,1.928,0,0,0-1.06-.909.027.027,0,0,0-.027.047,2.458,2.458,0,0,1,.426,3.345c-.04.053-.083.11-.125.156A1.944,1.944,0,0,0,281.213,216.851Z" transform="translate(-276.489 -215.422)" fill="#ff4b55"/>
      <path id="Tracé_2907" data-name="Tracé 2907" d="M204.782,219.334a2.458,2.458,0,0,1,.424-3.345.027.027,0,0,0-.027-.047,1.948,1.948,0,0,0-.271,3.547A1.441,1.441,0,0,1,204.782,219.334Z" transform="translate(-203.884 -215.424)" fill="#ff4b55"/>
    </g>
  </g>
</svg>
