<svg xmlns="http://www.w3.org/2000/svg" width="316.631" height="56.074" viewBox="0 0 316.631 56.074">
  <g id="logo-footer" transform="translate(-0.871 -8.836)">
    <g id="Groupe_8672" data-name="Groupe 8672" transform="translate(0 -1.37)">
      <rect id="Rectangle_3723" data-name="Rectangle 3723" width="45" height="37" transform="translate(1 20.836)" fill="#fff"/>
      <path id="Tracé_3127" data-name="Tracé 3127" d="M340.037,348.813H312v11.273h28.037a16.77,16.77,0,0,1,15.791,11.127H339.964v22.4H328.837v-22.4H312v33.674h28.037a28.037,28.037,0,0,0,0-56.074Z" transform="translate(-311.129 -338.607)" fill="#ec1b1b"/>
    </g>
    <g id="Groupe_8674" data-name="Groupe 8674" transform="translate(0 6)">
      <g id="Groupe_8673" data-name="Groupe 8673">
        <path id="Tracé_3128" data-name="Tracé 3128" d="M-97.176-28.368h-9.7V0h-7.392V-28.368h-9.648V-34.56h26.736Zm34.56-6.192v21.984A12.576,12.576,0,0,1-66.456-2.9Q-70.3.672-77.064.672T-87.672-2.9a12.576,12.576,0,0,1-3.84-9.672V-34.56h7.392V-13.3a7.279,7.279,0,0,0,1.848,5.3,6.939,6.939,0,0,0,5.208,1.9,6.923,6.923,0,0,0,5.232-1.9,7.337,7.337,0,0,0,1.824-5.3V-34.56Zm8.928,0h12.144q6.144,0,9.744,2.976a10.288,10.288,0,0,1,3.6,8.4,10.253,10.253,0,0,1-1.8,6.12,10.607,10.607,0,0,1-4.776,3.72L-27.528,0h-7.824l-6.1-12.1H-46.44V0h-7.248Zm12.336,6.192H-46.44v10.32h5.28a5.927,5.927,0,0,0,4.032-1.3,4.818,4.818,0,0,0,1.488-3.84,4.778,4.778,0,0,0-1.56-3.864A6.214,6.214,0,0,0-41.352-28.368Zm28.32-6.192v16.32L.408-34.56H9.144L-3.1-20.112,9.336,0H1.08L-8.088-15.36l-4.944,5.616V0h-7.392V-34.56ZM25.992,0H14.856V-34.56H25.9q8.736,0,13.968,4.8A16.153,16.153,0,0,1,45.1-17.28,16.189,16.189,0,0,1,39.888-4.8Q34.68,0,25.992,0ZM25.8-28.368H22.248V-6.192H25.9a11.712,11.712,0,0,0,8.592-3.12,10.7,10.7,0,0,0,3.168-7.968,10.683,10.683,0,0,0-3.192-7.944A11.809,11.809,0,0,0,25.8-28.368ZM51.336-17.28A17.416,17.416,0,0,1,56.5-30.024a17.462,17.462,0,0,1,12.936-5.208,17.483,17.483,0,0,1,12.912,5.208A17.374,17.374,0,0,1,87.528-17.28a17.371,17.371,0,0,1-5.16,12.792A17.546,17.546,0,0,1,69.432.672,17.546,17.546,0,0,1,56.5-4.488,17.371,17.371,0,0,1,51.336-17.28Zm7.44,0A11.209,11.209,0,0,0,61.8-9.336,9.993,9.993,0,0,0,69.432-6.1a9.993,9.993,0,0,0,7.632-3.24,11.209,11.209,0,0,0,3.024-7.944,11.232,11.232,0,0,0-3.024-7.92,9.958,9.958,0,0,0-7.632-3.264A9.958,9.958,0,0,0,61.8-25.2,11.232,11.232,0,0,0,58.776-17.28Zm43.392-17.28v16.32l13.44-16.32h8.736L112.1-20.112,124.536,0H116.28l-9.168-15.36-4.944,5.616V0H94.776V-34.56Z" transform="translate(191 53.836)" fill="#555" stroke="#555" stroke-width="2"/>
        <path id="Tracé_3129" data-name="Tracé 3129" d="M25.992,0H14.856V-34.56H25.9q8.736,0,13.968,4.8A16.153,16.153,0,0,1,45.1-17.28,16.189,16.189,0,0,1,39.888-4.8Q34.68,0,25.992,0ZM25.8-28.368H22.248V-6.192H25.9a11.712,11.712,0,0,0,8.592-3.12,10.7,10.7,0,0,0,3.168-7.968,10.683,10.683,0,0,0-3.192-7.944A11.809,11.809,0,0,0,25.8-28.368ZM51.336-17.28A17.416,17.416,0,0,1,56.5-30.024a17.462,17.462,0,0,1,12.936-5.208,17.483,17.483,0,0,1,12.912,5.208A17.374,17.374,0,0,1,87.528-17.28a17.371,17.371,0,0,1-5.16,12.792A17.546,17.546,0,0,1,69.432.672,17.546,17.546,0,0,1,56.5-4.488,17.371,17.371,0,0,1,51.336-17.28Zm7.44,0A11.209,11.209,0,0,0,61.8-9.336,9.993,9.993,0,0,0,69.432-6.1a9.993,9.993,0,0,0,7.632-3.24,11.209,11.209,0,0,0,3.024-7.944,11.232,11.232,0,0,0-3.024-7.92,9.958,9.958,0,0,0-7.632-3.264A9.958,9.958,0,0,0,61.8-25.2,11.232,11.232,0,0,0,58.776-17.28Zm43.392-17.28v16.32l13.44-16.32h8.736L112.1-20.112,124.536,0H116.28l-9.168-15.36-4.944,5.616V0H94.776V-34.56Z" transform="translate(191 53.836)" fill="red" stroke="red" stroke-width="2"/>
      </g>
      <circle id="Ellipse_472" data-name="Ellipse 472" cx="4" cy="4" r="4" transform="translate(104 7.836)" fill="#fff"/>
      <circle id="Ellipse_473" data-name="Ellipse 473" cx="4" cy="4" r="4" transform="translate(116 7.836)" fill="#fff"/>
    </g>
  </g>
</svg>
