<svg id="signup" xmlns="http://www.w3.org/2000/svg" width="60.835" height="60.835" viewBox="0 0 60.835 60.835">
  <g id="Group_8694" data-name="Group 8694">
    <path id="Path_3203" data-name="Path 3203" d="M50.592,0H10.243A10.265,10.265,0,0,0,0,10.268v20.15a2.244,2.244,0,0,0,2.238,2.238h34.4L31.7,37.59a2.237,2.237,0,1,0,3.157,3.17l8.751-8.751a2.251,2.251,0,0,0,0-3.17l-8.751-8.751a2.241,2.241,0,0,0-3.17,3.17l4.947,4.923H4.475V10.268a5.785,5.785,0,0,1,5.768-5.793h40.35a5.785,5.785,0,0,1,5.768,5.793v40.3a5.785,5.785,0,0,1-5.768,5.793H10.243a5.785,5.785,0,0,1-5.768-5.793V45.347a2.238,2.238,0,1,0-4.475,0v5.221A10.273,10.273,0,0,0,10.243,60.835h40.35A10.265,10.265,0,0,0,60.835,50.568v-40.3A10.273,10.273,0,0,0,50.592,0Z" fill="#fff"/>
  </g>
</svg>
