<svg xmlns="http://www.w3.org/2000/svg" width="20.921" height="20.921" viewBox="0 0 20.921 20.921">
  <g id="stethoscope" transform="translate(0.5 0.5)">
    <path id="Tracé_2858" data-name="Tracé 2858" d="M130.584,107.334h.584v.584a.584.584,0,0,0,1.167,0v-.584h.584a.584.584,0,0,0,0-1.167h-.584v-.584a.584.584,0,0,0-1.167,0v.584h-.584a.584.584,0,1,0,0,1.167Zm0,0" transform="translate(-124.942 -100.914)" fill="#fff"/>
    <path id="Tracé_2859" data-name="Tracé 2859" d="M18.365,13.7v-.646a3.327,3.327,0,1,0-6.653,0v3.541a2.159,2.159,0,0,1-4.319,0V12.032A5.649,5.649,0,0,0,12.451,6.42V3.4a1.751,1.751,0,1,0-1.167,0V6.42a4.474,4.474,0,1,1-8.949,0V3.4a1.751,1.751,0,1,0-1.167,0V6.42a5.649,5.649,0,0,0,5.058,5.612v4.563a3.327,3.327,0,0,0,6.653,0V13.054a2.159,2.159,0,1,1,4.319,0V13.7a2.14,2.14,0,1,0,1.167,0Zm-6.5-12.532a.584.584,0,1,1-.584.584A.584.584,0,0,1,11.867,1.168Zm-10.116,0a.584.584,0,1,1-.584.584A.584.584,0,0,1,1.751,1.168Zm16.03,15.563a.973.973,0,1,1,.973-.973A.974.974,0,0,1,17.781,16.731Zm0,0" transform="translate(0)" fill="#fff" stroke="#fff" stroke-width="1"/>
  </g>
</svg>
