<svg xmlns="http://www.w3.org/2000/svg" width="24.359" height="15.959" viewBox="0 0 24.359 15.959">
  <g id="turkey" transform="translate(0 0)">
    <path id="Tracé_2502" data-name="Tracé 2502" d="M22.535,1.4H1.824A1.824,1.824,0,0,0,0,3.224V15.535a1.824,1.824,0,0,0,1.824,1.824H22.535a1.824,1.824,0,0,0,1.824-1.824V3.224A1.824,1.824,0,0,0,22.535,1.4Z" transform="translate(0 -1.4)" fill="#ff4b55"/>
    <g id="Groupe_6701" data-name="Groupe 6701" transform="translate(3 4.006)">
      <path id="Tracé_2503" data-name="Tracé 2503" d="M4.736,3.6l.623.815.973-.326a.06.06,0,0,1,.068.09l-.582.844.61.824a.06.06,0,0,1-.065.093l-.983-.293-.6.835a.06.06,0,0,1-.108-.033L4.65,5.42l-.978-.308A.06.06,0,0,1,3.67,5l.967-.341L4.629,3.632A.06.06,0,0,1,4.736,3.6Z" transform="translate(3.674 -0.983)" fill="#f5f5f5"/>
      <path id="Tracé_2504" data-name="Tracé 2504" d="M6.023,9.815a3.181,3.181,0,0,1,0-6.362,3.119,3.119,0,0,1,1.757.541.077.077,0,0,0,.1-.116A3.941,3.941,0,0,0,4.891,2.662a3.974,3.974,0,0,0,.138,7.945,3.942,3.942,0,0,0,2.854-1.22.076.076,0,0,0-.1-.114A3.121,3.121,0,0,1,6.023,9.815Z" transform="translate(-1.057 -2.66)" fill="#f5f5f5"/>
    </g>
  </g>
</svg>
