<svg xmlns="http://www.w3.org/2000/svg" width="21.33" height="21.33" viewBox="0 0 21.33 21.33">
  <g id="user-icon" transform="translate(0 0)">
    <path id="user_icon" data-name="user icon" d="M8108.665,50C8105.106,50,8098,51.784,8098,55.33v4h21.33v-4C8119.33,51.784,8112.224,50,8108.665,50Zm0-12A5.332,5.332,0,1,0,8114,43.333,5.332,5.332,0,0,0,8108.665,38Zm0,14.53c3.96,0,8.133,1.947,8.133,2.8V56.8h-16.266V55.33C8100.532,54.477,8104.705,52.531,8108.665,52.531Zm0-12a2.8,2.8,0,1,1-2.8,2.8A2.8,2.8,0,0,1,8108.665,40.533Z" transform="translate(-8098 -38)" fill="#fff"/>
  </g>
</svg>
